<svg data-v-0dd9719b="" version="1.0" xmlns="http://www.w3.org/2000/svg" xmlns:xlink="http://www.w3.org/1999/xlink" width="100%" height="100%" viewBox="0 0 340.000000 250.000000" preserveAspectRatio="xMidYMid meet" color-interpolation-filters="sRGB" style="margin: auto;"> <g data-v-0dd9719b="" fill="#FFCE31" class="iconlinesvg-g iconlinesvg" transform="translate(65.34358775615692,101.31907272338867)"><g class="tp-name" transform="translate(0,0)"><g transform="translate(0, 0)"><g data-gra="path-name" fill="#FFCE31" transform="scale(1)"><path d="M19.33-5.41L19.77-0.76Q18.30-0.12 16.35 0.16Q14.40 0.44 12.73 0.44L12.73 0.44Q7.32 0.44 4.26-2.39Q1.19-5.21 1.19-11.06L1.19-11.06Q1.19-17.03 4.42-19.99Q7.64-22.95 13.49-22.95L13.49-22.95Q16.27-22.95 19.29-22.20L19.29-22.20Q19.29-21.40 19.13-19.83Q18.97-18.26 18.82-17.62L18.82-17.62L16.31-17.62Q13.56-17.62 11.99-17.52Q10.42-17.42 10.10-17.14L10.10-17.14Q9.51-16.59 9.19-14.90Q8.87-13.21 8.87-11.66L8.87-11.66Q8.87-8.95 9.55-7.50Q10.22-6.05 11.26-5.57L11.26-5.57Q12.25-5.09 14.56-5.09L14.56-5.09Q16.39-5.09 19.33-5.41L19.33-5.41Z" transform="translate(-1.1933701657458564, 24.145856353591164)"></path></g></g><g transform="translate(22, 0)"><g data-gra="path-name" fill="#FFCE31" transform="scale(1)"><path d="M10.46 0.52Q5.69 0.52 3.32-1.73Q0.95-3.98 0.95-8.83L0.95-8.83Q0.95-11.50 1.45-13.50Q1.95-15.51 2.67-16.31L2.67-16.31Q3.58-17.34 6.03-18.02Q8.47-18.70 10.62-18.70L10.62-18.70Q15.75-18.70 17.94-16.51Q20.13-14.32 20.13-9.51L20.13-9.51Q20.13-4.34 17.78-1.91Q15.43 0.52 10.46 0.52L10.46 0.52ZM10.58-4.14Q12.13-4.14 12.61-5.23Q13.09-6.32 13.09-9.11L13.09-9.11Q13.09-11.06 12.89-12.11Q12.69-13.17 12.15-13.66Q11.62-14.16 10.50-14.16L10.50-14.16Q8.91-14.16 8.67-13.88L8.67-13.88Q8.35-13.60 8.15-12.13Q7.96-10.66 7.96-9.07L7.96-9.07Q7.96-6.36 8.49-5.25Q9.03-4.14 10.58-4.14L10.58-4.14Z" transform="translate(-0.9546961325966852, 24.145856353591164)"></path></g></g><g transform="translate(45, 0)"><g data-gra="path-name" fill="#FFCE31" transform="scale(1)"><path d="M13.01-23.87L19.85-24.15L19.85 0L14.24 0L13.68-3.06Q12.89-1.51 11.34-0.60Q9.79 0.32 7.84 0.32L7.84 0.32Q4.73 0.32 2.88-1.91Q1.03-4.14 1.03-8.59L1.03-8.59Q1.03-11.97 1.83-14.16Q2.63-16.35 3.70-17.30L3.70-17.30Q4.38-17.90 6.46-18.30Q8.55-18.70 10.18-18.70L10.18-18.70Q11.62-18.70 13.13-18.42L13.13-18.42Q13.01-20.33 13.01-20.53L13.01-20.53L13.01-23.87ZM10.82-5.01Q11.89-5.01 13.05-5.37L13.05-5.37L13.05-14.00Q11.89-14.16 10.50-14.16L10.50-14.16Q9.31-14.16 8.99-13.96L8.99-13.96Q8.55-13.64 8.29-12.15Q8.04-10.66 8.04-9.03L8.04-9.03Q8.04-6.60 8.77-5.81Q9.51-5.01 10.82-5.01L10.82-5.01Z" transform="translate(-1.034254143646409, 24.145856353591164)"></path></g></g><g transform="translate(67, 0)"><g data-gra="path-name" fill="#FFCE31" transform="scale(1)"><path d="M12.73-4.77Q13.72-4.77 16.43-4.97L16.43-4.97Q16.79-4.97 17.74-5.05L17.74-5.05L18.34-0.95Q15.28 0.48 10.38 0.48L10.38 0.48Q5.81 0.48 3.36-1.83Q0.91-4.14 0.91-8.79L0.91-8.79Q0.91-11.18 1.53-13.41Q2.15-15.63 2.94-16.51L2.94-16.51Q3.78-17.38 6.05-18.02Q8.31-18.66 10.54-18.66L10.54-18.66Q14.12-18.66 15.91-17.38Q17.70-16.11 18.26-13.86Q18.82-11.62 18.82-7.84L18.82-7.84Q16.11-7.68 13.52-7.68L13.52-7.68L7.88-7.68Q7.88-6.40 8.41-5.77Q8.95-5.13 9.94-4.95Q10.94-4.77 12.73-4.77L12.73-4.77ZM8.27-13.92Q8.04-13.80 7.92-12.89Q7.80-11.97 7.76-10.82L7.76-10.82L9.83-10.82Q11.70-10.82 12.53-10.86L12.53-10.86Q12.53-12.77 11.99-13.56Q11.46-14.36 10.14-14.36L10.14-14.36Q9.07-14.36 8.27-13.92L8.27-13.92Z" transform="translate(-0.9149171270718232, 24.145856353591164)"></path></g></g><g transform="translate(88, 0)"><g data-gra="path-name" fill="#FFCE31" transform="scale(1)"><path d="M13.37-18.30L20.57-18.30L15.79-2.98Q14.40 1.43 13.29 3.44Q12.17 5.45 11.06 6.25L11.06 6.25Q10.42 6.68 9.05 6.92Q7.68 7.16 6.09 7.16L6.09 7.16Q3.70 7.16 2.27 6.72L2.27 6.72Q2.23 5.77 2.35 4.40Q2.47 3.02 2.67 2.07L2.67 2.07Q4.34 2.15 5.93 2.15L5.93 2.15Q7.12 2.15 7.72 2.11L7.72 2.11Q8.31 0.95 8.83-0.32L8.83-0.32L6.09-0.48L-0.04-18.30L7.16-18.30L10.34-5.49L10.38-4.73L10.50-4.73L13.37-18.30Z" transform="translate(0.03977900552486188, 24.145856353591164)"></path></g></g><g transform="translate(112, 0)"><g data-gra="path-name" fill="#FFCE31" transform="scale(1)"><path d="M1.91 0L1.91-22.67L9.07-22.67L9.07-5.25L18.34-5.25L18.34 0L1.91 0Z" transform="translate(-1.90939226519337, 24.145856353591164)"></path></g></g><g transform="translate(132, 4.149330415347386)"><g><g class="imagesvg"><g><rect fill="#FFCE31" fill-opacity="0" stroke-width="2" x="0" y="0" width="36.77068315222835" height="23.00741651737153" class="image-rect"></rect> <svg x="0" y="0" width="36.77068315222835" height="23.00741651737153" filtersec="colorsb7070409974" class="image-svg-svg primary" style="overflow: visible;"><svg xmlns="http://www.w3.org/2000/svg" viewBox="0 -0.017110824584960938 2324.300048828125 1454.317138671875"><path d="M812.6 561.9h1420c50.6 0 91.7-41 91.7-91.7 0-50.6-41-91.7-91.7-91.7h-1420c-50.6 0-91.7 41-91.7 91.7 0 50.6 41 91.7 91.7 91.7z" fill="#FFCE31"></path><path d="M1101 1112.3h930c50.6 0 91.7-41 91.7-91.7s-41-91.7-91.7-91.7h-930c-50.6 0-91.7 41-91.7 91.7s41.1 91.7 91.7 91.7z" fill="#e60012"></path><path d="M968.4 829.3h1166.5c50.6 0 91.7-41 91.7-91.7 0-50.6-41-91.7-91.7-91.7H968.4c-50.6 0-91.7 41-91.7 91.7 0 50.6 41 91.7 91.7 91.7z" fill="#f39800"></path><path d="M797.1 560.6l1325.5 266.7c49.9 8.5 97.3-25 105.8-74.9 8.5-49.9-25-97.3-74.9-105.8L828 379.9c-49.9-8.5-97.3 25-105.8 74.9-8.5 49.9 25 97.2 74.9 105.8z" fill="#fed400"></path><path d="M953.4 828l1067.4 282.3c49.9 8.5 97.3-25 105.8-74.9 8.5-49.9-25-97.3-74.9-105.8L984.3 647.3c-49.9-8.5-97.3 25-105.8 74.9-8.5 49.9 25 97.2 74.9 105.8z" fill="#f39800"></path><path d="M91.7 183.3h583.6c50.6 0 91.7-41 91.7-91.7S725.8 0 675.2 0H91.7C41 0 0 41 0 91.7s41 91.6 91.7 91.6z" fill="#000000"></path><path d="M614.3 152l109.5 127.9c33.3 38.1 91.2 42 129.3 8.6 38.1-33.3 42-91.2 8.6-129.3L752.3 31.3C719-6.8 661.1-10.7 623 22.7c-38.1 33.3-42 91.2-8.7 129.3z" fill="#000000"></path><circle cx="1319.1" cy="1307.6" r="146.7"></circle><circle cx="1828.6" cy="1307.6" r="146.7"></circle></svg></svg> <!----></g></g></g></g><g transform="translate(172, 0)"><g data-gra="path-name" fill="#FFCE31" transform="scale(1)"><path d="M13.92-18.70Q17.03-18.70 18.72-16.83Q20.41-14.96 20.41-10.22L20.41-10.22Q20.41-6.76 19.71-4.32Q19.01-1.87 18.14-1.19L18.14-1.19Q17.10-0.36 15.08 0.04Q13.05 0.44 10.46 0.44L10.46 0.44Q8.47 0.44 6.01 0.14Q3.54-0.16 1.59-0.80L1.59-0.80L1.59-23.87L8.47-24.15L8.47-20.41Q8.47-20.09 8.45-18.93Q8.43-17.78 8.35-17.01Q8.27-16.23 8.11-15.83L8.11-15.83L8.35-15.55Q9.27-16.95 10.66-17.82Q12.05-18.70 13.92-18.70L13.92-18.70ZM12.81-4.34Q13.05-4.73 13.23-6.21Q13.41-7.68 13.41-9.03L13.41-9.03Q13.41-10.62 13.27-11.54Q13.13-12.45 12.59-12.99Q12.05-13.52 10.94-13.52L10.94-13.52Q9.94-13.52 8.39-13.25L8.39-13.25L8.39-4.26Q9.87-4.02 11.46-4.02L11.46-4.02Q12.61-4.02 12.81-4.34L12.81-4.34Z" transform="translate(-1.5911602209944753, 24.145856353591164)"></path></g></g><g transform="translate(194, 0)"><g data-gra="path-name" fill="#FFCE31" transform="scale(1)"><path d="M16.43-6.21Q16.43-2.67 14.18-1.11Q11.93 0.44 7.80 0.44L7.80 0.44Q4.89 0.44 1.11-0.40L1.11-0.40Q1.19-1.19 1.49-2.69Q1.79-4.18 1.99-4.97L1.99-4.97Q3.42-4.73 5.17-4.59Q6.92-4.46 8.15-4.46L8.15-4.46Q9.23-4.46 9.47-4.57L9.47-4.57Q9.51-4.61 9.57-4.79Q9.63-4.97 9.63-5.17L9.63-5.17Q9.63-5.97 8.63-6.25L8.63-6.25Q8.31-6.32 6.21-6.92Q4.10-7.52 2.76-9.09Q1.43-10.66 1.43-13.01L1.43-13.01Q1.43-14.24 1.99-15.75Q2.55-17.26 3.18-17.66L3.18-17.66Q3.66-17.98 5.49-18.32Q7.32-18.66 8.87-18.66L8.87-18.66Q12.17-18.66 15.51-18.18L15.51-18.18Q15.51-17.46 15.31-15.77Q15.12-14.08 14.96-13.64L14.96-13.64Q11.58-14.08 9.51-14.08L9.51-14.08Q8.43-14.08 8.11-13.96L8.11-13.96Q8.04-13.92 7.96-13.74Q7.88-13.56 7.88-13.29L7.88-13.29Q7.88-12.73 8.23-12.49L8.23-12.49Q8.59-12.21 10.10-11.81L10.10-11.81Q11.89-11.30 13.19-10.74Q14.48-10.18 15.45-9.07Q16.43-7.96 16.43-6.21L16.43-6.21Z" transform="translate(-1.1138121546961326, 24.145856353591164)"></path></g></g></g> <g data-gra="path-slogan" fill-rule="" class="tp-slogan" fill="#FFCE31" transform="translate(5.000007629394531,37.30999946594238)"><rect x="0" height="1" y="4.53000020980835" width="20.64478302001953"></rect> <rect height="1" y="4.53000020980835" width="20.64478302001953" x="178.6747817993164"></rect> <g transform="translate(23.64478302001953,0)"><g transform="scale(1)"><path d="M1.08-7.87L1.08 0L2.08 0L2.08-7.87ZM4.24-7.87L4.24 0L5.18 0L5.18-4.12C5.18-4.53 5.17-4.95 5.14-5.36C5.11-5.77 5.08-6.18 5.05-6.58L5.10-6.58L5.95-4.96L8.81 0L9.84 0L9.84-7.87L8.89-7.87L8.89-3.80C8.89-3.39 8.91-2.97 8.93-2.54C8.96-2.11 8.99-1.70 9.01-1.30L8.96-1.30L8.11-2.93L5.27-7.87ZM12-7.87L12 0L12.95 0L12.95-4.12C12.95-4.53 12.93-4.95 12.91-5.36C12.88-5.77 12.85-6.18 12.82-6.58L12.86-6.58L13.72-4.96L16.57 0L17.60 0L17.60-7.87L16.66-7.87L16.66-3.80C16.66-3.39 16.67-2.97 16.70-2.54C16.73-2.11 16.75-1.70 16.78-1.30L16.73-1.30L15.88-2.93L13.03-7.87ZM22.67 0.14C23.16 0.14 23.62 0.05 24.03-0.14C24.44-0.34 24.80-0.61 25.10-0.97C25.40-1.32 25.63-1.75 25.79-2.26C25.96-2.77 26.04-3.34 26.04-3.97C26.04-4.60 25.96-5.16 25.79-5.66C25.63-6.16 25.40-6.58 25.10-6.93C24.80-7.28 24.44-7.55 24.03-7.73C23.62-7.92 23.16-8.02 22.67-8.02C22.17-8.02 21.72-7.92 21.31-7.74C20.89-7.56 20.54-7.29 20.24-6.94C19.95-6.59 19.72-6.17 19.55-5.67C19.39-5.17 19.31-4.60 19.31-3.97C19.31-3.34 19.39-2.77 19.55-2.26C19.72-1.75 19.95-1.32 20.24-0.97C20.54-0.61 20.89-0.34 21.31-0.14C21.72 0.05 22.17 0.14 22.67 0.14ZM22.67-0.73C22.32-0.73 22.00-0.81 21.71-0.96C21.43-1.11 21.19-1.33 20.98-1.61C20.78-1.90 20.62-2.24 20.51-2.63C20.40-3.03 20.34-3.48 20.34-3.97C20.34-4.46 20.40-4.90 20.51-5.29C20.62-5.68 20.78-6.02 20.98-6.29C21.19-6.56 21.43-6.77 21.71-6.92C22.00-7.07 22.32-7.14 22.67-7.14C23.02-7.14 23.34-7.07 23.62-6.92C23.91-6.77 24.15-6.56 24.35-6.29C24.56-6.02 24.72-5.68 24.83-5.29C24.94-4.90 25.00-4.46 25.00-3.97C25.00-3.48 24.94-3.03 24.83-2.63C24.72-2.24 24.56-1.90 24.35-1.61C24.15-1.33 23.91-1.11 23.62-0.96C23.34-0.81 23.02-0.73 22.67-0.73ZM26.53-7.87L29.05 0L30.22 0L32.71-7.87L31.69-7.87L30.43-3.62C30.30-3.15 30.17-2.72 30.06-2.32C29.95-1.92 29.82-1.48 29.68-1.02L29.63-1.02C29.48-1.48 29.35-1.92 29.24-2.32C29.13-2.72 29.00-3.15 28.86-3.62L27.60-7.87ZM36.97-3.20L34.61-3.20L34.98-4.40C35.12-4.84 35.26-5.28 35.39-5.72C35.52-6.15 35.64-6.60 35.76-7.06L35.81-7.06C35.94-6.60 36.06-6.15 36.19-5.72C36.32-5.28 36.46-4.84 36.60-4.40ZM37.22-2.40L37.97 0L39.04 0L36.37-7.87L35.24-7.87L32.58 0L33.60 0L34.36-2.40ZM41.30-7.03L41.30 0L42.31 0L42.31-7.03L44.69-7.03L44.69-7.87L38.93-7.87L38.93-7.03ZM46.10-7.87L46.10 0L50.76 0L50.76-0.85L47.10-0.85L47.10-3.71L50.09-3.71L50.09-4.56L47.10-4.56L47.10-7.03L50.64-7.03L50.64-7.87ZM51.91 1.46L52.15 2.04C52.64 1.83 53.02 1.54 53.30 1.15C53.58 0.77 53.72 0.32 53.72-0.20C53.72-0.56 53.65-0.85 53.50-1.06C53.35-1.26 53.15-1.37 52.90-1.37C52.70-1.37 52.52-1.31 52.38-1.18C52.24-1.06 52.16-0.89 52.16-0.67C52.16-0.45 52.23-0.28 52.37-0.16C52.51-0.05 52.68 0.01 52.87 0.01C52.93 0.01 52.97 0.01 52.99 0C52.99 0.33 52.90 0.62 52.70 0.86C52.51 1.11 52.25 1.31 51.91 1.46ZM55.42-7.87L55.42 0L59.86 0L59.86-0.85L56.41-0.85L56.41-7.87ZM64.63-3.20L62.27-3.20L62.64-4.40C62.78-4.84 62.92-5.28 63.05-5.72C63.18-6.15 63.30-6.60 63.42-7.06L63.47-7.06C63.60-6.60 63.72-6.15 63.85-5.72C63.98-5.28 64.12-4.84 64.26-4.40ZM64.88-2.40L65.63 0L66.70 0L64.03-7.87L62.90-7.87L60.24 0L61.26 0L62.02-2.40ZM67.81-7.87L67.81 0L70.32 0C70.76 0 71.16-0.05 71.53-0.14C71.90-0.24 72.22-0.38 72.48-0.58C72.74-0.77 72.95-1.01 73.09-1.30C73.24-1.58 73.31-1.92 73.31-2.30C73.31-2.85 73.15-3.28 72.83-3.59C72.51-3.90 72.06-4.10 71.48-4.19L71.48-4.24C71.95-4.36 72.29-4.57 72.52-4.89C72.74-5.21 72.85-5.56 72.85-5.95C72.85-6.30 72.79-6.59 72.65-6.83C72.52-7.08 72.34-7.28 72.10-7.43C71.87-7.58 71.58-7.69 71.25-7.76C70.92-7.84 70.55-7.87 70.15-7.87ZM69.97-4.51L68.81-4.51L68.81-7.08L70.02-7.08C70.64-7.08 71.10-6.99 71.41-6.80C71.71-6.61 71.87-6.30 71.87-5.87C71.87-5.43 71.72-5.09 71.43-4.86C71.14-4.63 70.65-4.51 69.97-4.51ZM70.18-0.79L68.81-0.79L68.81-3.77L70.18-3.77C70.87-3.77 71.40-3.65 71.77-3.43C72.14-3.20 72.32-2.84 72.32-2.35C72.32-1.82 72.14-1.42 71.76-1.17C71.38-0.92 70.86-0.79 70.18-0.79ZM77.77 0.14C78.27 0.14 78.72 0.05 79.13-0.14C79.55-0.34 79.90-0.61 80.20-0.97C80.50-1.32 80.73-1.75 80.90-2.26C81.06-2.77 81.14-3.34 81.14-3.97C81.14-4.60 81.06-5.16 80.90-5.66C80.73-6.16 80.50-6.58 80.20-6.93C79.90-7.28 79.55-7.55 79.13-7.73C78.72-7.92 78.27-8.02 77.77-8.02C77.28-8.02 76.82-7.92 76.41-7.74C76.00-7.56 75.64-7.29 75.35-6.94C75.05-6.59 74.82-6.17 74.66-5.67C74.49-5.17 74.41-4.60 74.41-3.97C74.41-3.34 74.49-2.77 74.66-2.26C74.82-1.75 75.05-1.32 75.35-0.97C75.64-0.61 76.00-0.34 76.41-0.14C76.82 0.05 77.28 0.14 77.77 0.14ZM77.77-0.73C77.42-0.73 77.10-0.81 76.82-0.96C76.53-1.11 76.29-1.33 76.09-1.61C75.88-1.90 75.72-2.24 75.61-2.63C75.50-3.03 75.44-3.48 75.44-3.97C75.44-4.46 75.50-4.90 75.61-5.29C75.72-5.68 75.88-6.02 76.09-6.29C76.29-6.56 76.53-6.77 76.82-6.92C77.10-7.07 77.42-7.14 77.77-7.14C78.12-7.14 78.44-7.07 78.73-6.92C79.01-6.77 79.25-6.56 79.46-6.29C79.66-6.02 79.82-5.68 79.93-5.29C80.04-4.90 80.10-4.46 80.10-3.97C80.10-3.48 80.04-3.03 79.93-2.63C79.82-2.24 79.66-1.90 79.46-1.61C79.25-1.33 79.01-1.11 78.73-0.96C78.44-0.81 78.12-0.73 77.77-0.73ZM83.83-4.14L83.83-7.07L85.15-7.07C85.77-7.07 86.24-6.96 86.57-6.76C86.90-6.55 87.06-6.18 87.06-5.66C87.06-5.15 86.90-4.77 86.57-4.52C86.24-4.27 85.77-4.14 85.15-4.14ZM87.16 0L88.28 0L86.29-3.43C86.83-3.57 87.26-3.82 87.58-4.19C87.90-4.56 88.06-5.05 88.06-5.66C88.06-6.07 87.99-6.42 87.85-6.70C87.72-6.98 87.53-7.20 87.28-7.38C87.04-7.56 86.75-7.68 86.41-7.76C86.07-7.83 85.70-7.87 85.30-7.87L82.84-7.87L82.84 0L83.83 0L83.83-3.32L85.26-3.32ZM93.04-3.20L90.67-3.20L91.04-4.40C91.19-4.84 91.32-5.28 91.45-5.72C91.58-6.15 91.70-6.60 91.82-7.06L91.87-7.06C92.00-6.60 92.13-6.15 92.26-5.72C92.38-5.28 92.52-4.84 92.66-4.40ZM93.29-2.40L94.03 0L95.10 0L92.44-7.87L91.31-7.87L88.64 0L89.66 0L90.42-2.40ZM97.37-7.03L97.37 0L98.38 0L98.38-7.03L100.75-7.03L100.75-7.87L94.99-7.87L94.99-7.03ZM102.17-7.87L102.17 0L106.82 0L106.82-0.85L103.16-0.85L103.16-3.71L106.15-3.71L106.15-4.56L103.16-4.56L103.16-7.03L106.70-7.03L106.70-7.87ZM107.98 1.46L108.22 2.04C108.70 1.83 109.09 1.54 109.37 1.15C109.65 0.77 109.79 0.32 109.79-0.20C109.79-0.56 109.71-0.85 109.57-1.06C109.42-1.26 109.22-1.37 108.96-1.37C108.76-1.37 108.59-1.31 108.44-1.18C108.30-1.06 108.23-0.89 108.23-0.67C108.23-0.45 108.30-0.28 108.44-0.16C108.58-0.05 108.74 0.01 108.94 0.01C108.99 0.01 109.03 0.01 109.06 0C109.06 0.33 108.96 0.62 108.77 0.86C108.58 1.11 108.31 1.31 107.98 1.46ZM111.48-7.87L111.48 0L116.14 0L116.14-0.85L112.48-0.85L112.48-3.71L115.46-3.71L115.46-4.56L112.48-4.56L112.48-7.03L116.02-7.03L116.02-7.87ZM117.80-7.87L117.80 0L122.24 0L122.24-0.85L118.80-0.85L118.80-7.87ZM123.64-7.87L123.64 0L128.29 0L128.29-0.85L124.63-0.85L124.63-3.71L127.62-3.71L127.62-4.56L124.63-4.56L124.63-7.03L128.17-7.03L128.17-7.87ZM128.88-7.87L131.40 0L132.56 0L135.06-7.87L134.04-7.87L132.78-3.62C132.64-3.15 132.52-2.72 132.41-2.32C132.30-1.92 132.17-1.48 132.02-1.02L131.98-1.02C131.82-1.48 131.69-1.92 131.59-2.32C131.48-2.72 131.35-3.15 131.21-3.62L129.95-7.87ZM139.32-3.20L136.96-3.20L137.33-4.40C137.47-4.84 137.61-5.28 137.74-5.72C137.86-6.15 137.99-6.60 138.11-7.06L138.16-7.06C138.28-6.60 138.41-6.15 138.54-5.72C138.67-5.28 138.80-4.84 138.95-4.40ZM139.57-2.40L140.32 0L141.38 0L138.72-7.87L137.59-7.87L134.93 0L135.95 0L136.70-2.40ZM143.65-7.03L143.65 0L144.66 0L144.66-7.03L147.04-7.03L147.04-7.87L141.28-7.87L141.28-7.03ZM148.45-7.87L148.45 0L153.11 0L153.11-0.85L149.45-0.85L149.45-3.71L152.44-3.71L152.44-4.56L149.45-4.56L149.45-7.03L152.99-7.03L152.99-7.87Z" transform="translate(-1.08, 8.016)"></path></g></g></g></g><defs v-gra="od"></defs></svg>