<svg data-v-0dd9719b="" version="1.0" xmlns="http://www.w3.org/2000/svg" xmlns:xlink="http://www.w3.org/1999/xlink" width="100%" height="100%" viewBox="0 0 340.000000 250.000000" preserveAspectRatio="xMidYMid meet" color-interpolation-filters="sRGB" style="margin: auto;"><g data-v-0dd9719b="" fill="#333" class="iconlettersvg-g iconlettersvg" transform="translate(9.704193115234375,96.97199884802103)"><g><g class="tp-name" transform="translate(0,0)"><g transform="scale(1)"><g transform="translate(0, 0)"><g class="name-imagesvg"><g><rect fill="#333" fill-opacity="0" stroke-width="2" x="0" y="0" width="40.903996334590865" height="40" class="image-rect"></rect> <svg filter="url(#colors6460260911)" x="0" y="0" width="40.903996334590865" height="40" filtersec="colorsb1054101781" class="image-svg-svg primary" style="overflow: visible;"><svg xmlns="http://www.w3.org/2000/svg" viewBox="0 0 27.57 27.19"><title>资源 20</title><path d="M26.58 11.21l.83-.83-.17-1-.17-1A10.59 10.59 0 0 0 16.53 0h-.59C9.15 0 0 11.14 0 16.41a10.82 10.82 0 0 0 .74 3.92c.11.29.24.56.37.84l.06.12c0 .05.05.09.07.13a6.65 6.65 0 0 0 .33.58l.13.23c.2.3.4.6.63.88.14.19.3.37.46.55l.19.21a.46.46 0 0 0 .07.07l.36.35.21.19.07.06c.21.17.41.34.63.5l.08.06.23.15c.16.1.32.21.48.3l.17.1.2.11.53.26.23.11.11.05a8.89 8.89 0 0 0 .86.32h.06l.21.06.73.19h.38c.23.05.47.08.71.11h.35c.36 0 .72.06 1.1.06 3.22 0 8.39-3.63 12-7.53A13.42 13.42 0 0 0 27 13.35l.26-1.07.27-1.07zm-.38 1.93a9.74 9.74 0 0 1-9.62 7.5 9.89 9.89 0 1 1 0-19.78 9.71 9.71 0 0 1 9.69 7.65l.17 1h-6.32L19.91 9a3.67 3.67 0 0 0-3.41-2.51 4 4 0 0 0-3.79 4.21c0 2.09 1.34 4.31 3.82 4.31a3.72 3.72 0 0 0 3.4-2.44l.23-.5h6.31zm-10.36.93a3.21 3.21 0 0 1-2.23-2.91A2.94 2.94 0 0 1 15.42 13l.21.56.21.55z" fill="#323333"></path></svg></svg> <defs><filter id="colors6460260911"><feColorMatrix type="matrix" values="0 0 0 0 0.19921875  0 0 0 0 0.19921875  0 0 0 0 0.19921875  0 0 0 1 0" class="icon-fecolormatrix"></feColorMatrix></filter> <filter id="colorsf875316791"><feColorMatrix type="matrix" values="0 0 0 0 0.99609375  0 0 0 0 0.99609375  0 0 0 0 0.99609375  0 0 0 1 0" class="icon-fecolormatrix"></feColorMatrix></filter> <filter id="colorsb1054101781"><feColorMatrix type="matrix" values="0 0 0 0 0  0 0 0 0 0  0 0 0 0 0  0 0 0 1 0" class="icon-fecolormatrix"></feColorMatrix></filter></defs></g></g></g><g transform="translate(40.903996334590865, 0)"><g class="name-imagesvg"><g><rect fill="#333" fill-opacity="0" stroke-width="2" x="0" y="0" width="40.469393157307266" height="40" class="image-rect"></rect> <svg filter="url(#colors2065900827)" x="0" y="0" width="40.469393157307266" height="40" filtersec="colorsb7470575103" class="image-svg-svg primary" style="overflow: visible;"><svg xmlns="http://www.w3.org/2000/svg" viewBox="0 0 27.49 27.19"><title>资源 9</title><g fill="#323333"><path d="M16.6 6.49a4 4 0 0 0-3.89 4.21c0 2.14 1.35 4.31 3.93 4.31s3.82-2.47 3.82-4.24-1.2-4.28-3.86-4.28zm-3 4.63a2.66 2.66 0 0 1 1.55 1.07c.08.11.16.23.23.35l.12.23c.06.13.11.26.16.38s.06.15.08.23a3.24 3.24 0 0 1 .09.4v.18a.31.31 0 0 1 0 .1 3.15 3.15 0 0 1-2.23-2.94z"></path><path d="M27.49 10.75A10.72 10.72 0 0 0 16.57 0H16a8 8 0 0 0-3.2.82 16.51 16.51 0 0 0-4.59 3c-3.59 2.92-6.69 6.71-7.4 8.46A11.47 11.47 0 0 0 0 16.64a10.13 10.13 0 0 0 .72 3.69v.05c0 .06.05.12.07.17.09.23.2.45.3.67a1.86 1.86 0 0 1 .1.2c.15.27.3.55.47.81a10.72 10.72 0 0 0 .62.88c.22.28.45.54.69.79H3a.6.6 0 0 0 .08.08c.19.19.38.37.58.54l.09.09c.23.19.47.38.73.56l.22.15.58.36.27.15.65.32.23.1a9 9 0 0 0 .91.34l.21.06.78.2.37.15c.24.05.49.08.74.11h.33c.35 0 .72.06 1.09.06a8.66 8.66 0 0 0 1.25-.1c.18 0 .36-.07.54-.1l.67-.15c.31-.08.62-.18.93-.29h.12c6-2.15 11.8-9.08 12.81-13.16l-.11.05a9.45 9.45 0 0 0 .42-2.67zm-10.94 9.89a9.86 9.86 0 0 1-10-9.64 10.72 10.72 0 0 1 .74-4A9.9 9.9 0 0 1 16.57.86a9.89 9.89 0 1 1 0 19.78z"></path></g></svg></svg> <defs><filter id="colors2065900827"><feColorMatrix type="matrix" values="0 0 0 0 0.19921875  0 0 0 0 0.19921875  0 0 0 0 0.19921875  0 0 0 1 0" class="icon-fecolormatrix"></feColorMatrix></filter> <filter id="colorsf649793440"><feColorMatrix type="matrix" values="0 0 0 0 0.99609375  0 0 0 0 0.99609375  0 0 0 0 0.99609375  0 0 0 1 0" class="icon-fecolormatrix"></feColorMatrix></filter> <filter id="colorsb7470575103"><feColorMatrix type="matrix" values="0 0 0 0 0  0 0 0 0 0  0 0 0 0 0  0 0 0 1 0" class="icon-fecolormatrix"></feColorMatrix></filter></defs></g></g></g><g transform="translate(81.37338949189814, 0)"><g class="name-imagesvg"><g><rect fill="#333" fill-opacity="0" stroke-width="2" x="0" y="0" width="36.464348188069174" height="40" class="image-rect"></rect> <svg filter="url(#colors5667043023)" x="0" y="0" width="36.464348188069174" height="40" filtersec="colorsb601955431" class="image-svg-svg primary" style="overflow: visible;"><svg xmlns="http://www.w3.org/2000/svg" viewBox="0 0 24.17 26.52"><title>资源 26</title><g fill="#323333"><path d="M24.17 10.37A10.46 10.46 0 0 0 22.27 4c-2.77-4-7-4-9.1-4H5.68L0 5.68v20.84h8.52c2.5-.06 4.45-.4 6.2-1.87a55.82 55.82 0 0 0 6.11-6.11 13.62 13.62 0 0 0 1.86-2.61c.07-.13.15-.25.21-.37a11.58 11.58 0 0 0 1.27-5.19zM13.5 20H6.55V.86h6.62c2.05 0 5.88 0 8.39 3.61a9.66 9.66 0 0 1 1.75 5.9c0 6.11-3.58 9.63-9.81 9.63z"></path><path d="M13.78 6.49h-1.07v7.86h1c1.46 0 3.4-.4 3.4-3.91a5.38 5.38 0 0 0-.71-2.75 2.8 2.8 0 0 0-2.62-1.2z"></path></g></svg></svg> <defs><filter id="colors5667043023"><feColorMatrix type="matrix" values="0 0 0 0 0.19921875  0 0 0 0 0.19921875  0 0 0 0 0.19921875  0 0 0 1 0" class="icon-fecolormatrix"></feColorMatrix></filter> <filter id="colorsf3080369685"><feColorMatrix type="matrix" values="0 0 0 0 0.99609375  0 0 0 0 0.99609375  0 0 0 0 0.99609375  0 0 0 1 0" class="icon-fecolormatrix"></feColorMatrix></filter> <filter id="colorsb601955431"><feColorMatrix type="matrix" values="0 0 0 0 0  0 0 0 0 0  0 0 0 0 0  0 0 0 1 0" class="icon-fecolormatrix"></feColorMatrix></filter></defs></g></g></g><g transform="translate(117.83773767996732, 0)"><g class="name-imagesvg"><g><rect fill="#333" fill-opacity="0" stroke-width="2" x="0" y="0" width="28.340875703154996" height="40" class="image-rect"></rect> <svg filter="url(#colors4562722693)" x="0" y="0" width="28.340875703154996" height="40" filtersec="colorsb6035440665" class="image-svg-svg primary" style="overflow: visible;"><svg xmlns="http://www.w3.org/2000/svg" viewBox="0 0 18.79 26.52"><title>资源 23</title><path d="M17.93 0H5.69L0 5.68v20.84h13.1l5.69-5.68v-7.35h-.17V7.35h.17V0zm0 1.72v4.77h-5.41v1h5.24v5.62h-5.24v1.26h5.41V20H6.55V.86h11.38z" fill="#323333"></path></svg></svg> <defs><filter id="colors4562722693"><feColorMatrix type="matrix" values="0 0 0 0 0.19921875  0 0 0 0 0.19921875  0 0 0 0 0.19921875  0 0 0 1 0" class="icon-fecolormatrix"></feColorMatrix></filter> <filter id="colorsf4827505351"><feColorMatrix type="matrix" values="0 0 0 0 0.99609375  0 0 0 0 0.99609375  0 0 0 0 0.99609375  0 0 0 1 0" class="icon-fecolormatrix"></feColorMatrix></filter> <filter id="colorsb6035440665"><feColorMatrix type="matrix" values="0 0 0 0 0  0 0 0 0 0  0 0 0 0 0  0 0 0 1 0" class="icon-fecolormatrix"></feColorMatrix></filter></defs></g></g></g><g transform="translate(146.17861338312233, 0)"><g class="name-imagesvg"><g><rect fill="#333" fill-opacity="0" stroke-width="2" x="0" y="0" width="39.03468885980398" height="40" class="image-rect"></rect> <svg filter="url(#colors4059621724)" x="0" y="0" width="39.03468885980398" height="40" filtersec="colorsb6971011605" class="image-svg-svg primary" style="overflow: visible;"><svg xmlns="http://www.w3.org/2000/svg" viewBox="0 0 25.88 26.52"><title>资源 6</title><path d="M24.53 0h-7.32l-2 2-.34-.92-.25-.52-.2-.56H5.68L0 5.68l.58 1.23.57 1.23 5 10.72v7.66h7.89l5.69-5.68v-7.66l5-10.73.56-1.23.59-1.22zM24 2.08L18.89 13v7h-6.16v-7L7.62 2.09 7 .86h6.78l.2.56 1.79 4.81 1.83-4.81.21-.56h6.72z" fill="#323333"></path></svg></svg> <defs><filter id="colors4059621724"><feColorMatrix type="matrix" values="0 0 0 0 0.19921875  0 0 0 0 0.19921875  0 0 0 0 0.19921875  0 0 0 1 0" class="icon-fecolormatrix"></feColorMatrix></filter> <filter id="colorsf5418329796"><feColorMatrix type="matrix" values="0 0 0 0 0.99609375  0 0 0 0 0.99609375  0 0 0 0 0.99609375  0 0 0 1 0" class="icon-fecolormatrix"></feColorMatrix></filter> <filter id="colorsb6971011605"><feColorMatrix type="matrix" values="0 0 0 0 0  0 0 0 0 0  0 0 0 0 0  0 0 0 1 0" class="icon-fecolormatrix"></feColorMatrix></filter></defs></g></g></g><g transform="translate(185.21330224292632, 0)"><g class="name-imagesvg"><g><rect fill="#333" fill-opacity="0" stroke-width="2" x="0" y="0" width="28.174962266574546" height="40" class="image-rect"></rect> <svg filter="url(#colors7584949708)" x="0" y="0" width="28.174962266574546" height="40" filtersec="colorsb6399756383" class="image-svg-svg primary" style="overflow: visible;"><svg xmlns="http://www.w3.org/2000/svg" viewBox="0 0 18.72 26.52"><title>资源 22</title><path d="M17.86 13.49h-4.29V0H5.69L0 5.68v20.84h13l5.68-5.68v-7.35zm0 1.72V20H6.55V.86h6.16v13.49h5.15z" fill="#323333"></path></svg></svg> <defs><filter id="colors7584949708"><feColorMatrix type="matrix" values="0 0 0 0 0.19921875  0 0 0 0 0.19921875  0 0 0 0 0.19921875  0 0 0 1 0" class="icon-fecolormatrix"></feColorMatrix></filter> <filter id="colorsf6384856492"><feColorMatrix type="matrix" values="0 0 0 0 0.99609375  0 0 0 0 0.99609375  0 0 0 0 0.99609375  0 0 0 1 0" class="icon-fecolormatrix"></feColorMatrix></filter> <filter id="colorsb6399756383"><feColorMatrix type="matrix" values="0 0 0 0 0  0 0 0 0 0  0 0 0 0 0  0 0 0 1 0" class="icon-fecolormatrix"></feColorMatrix></filter></defs></g></g></g><g transform="translate(213.38826450950086, 0)"><g class="name-imagesvg"><g><rect fill="#333" fill-opacity="0" stroke-width="2" x="0" y="0" width="42.48868716447889" height="40" class="image-rect"></rect> <svg filter="url(#colors9753267732)" x="0" y="0" width="42.48868716447889" height="40" filtersec="colorsb3667889306" class="image-svg-svg primary" style="overflow: visible;"><svg xmlns="http://www.w3.org/2000/svg" viewBox="0 0 28.17 26.52"><title>资源 24</title><g fill="#323333"><path d="M16.3 12.21h1.33l-.67-2.2-.66 2.2z"></path><path d="M28.17 20.84l-.47-1.18-.47-1.18-6.91-17.39-.22-.55-.22-.54h-5.83L8.37 5.68l-.22.54-.22.54L1 24.16l-.53 1.18L0 26.52h8.52L11 24h2l.45 1.34.2.59.2.58h8.59v-.05l5.63-5.63zM25.63 20h-5.44l-.2-.59-.65-1.93h-4.82l-.71 1.95-.2.57H7l.47-1.19 7-17.39.22-.54h4.61l.22.55 6.91 17.37.47 1.2z"></path></g></svg></svg> <defs><filter id="colors9753267732"><feColorMatrix type="matrix" values="0 0 0 0 0.19921875  0 0 0 0 0.19921875  0 0 0 0 0.19921875  0 0 0 1 0" class="icon-fecolormatrix"></feColorMatrix></filter> <filter id="colorsf1663880873"><feColorMatrix type="matrix" values="0 0 0 0 0.99609375  0 0 0 0 0.99609375  0 0 0 0 0.99609375  0 0 0 1 0" class="icon-fecolormatrix"></feColorMatrix></filter> <filter id="colorsb3667889306"><feColorMatrix type="matrix" values="0 0 0 0 0  0 0 0 0 0  0 0 0 0 0  0 0 0 1 0" class="icon-fecolormatrix"></feColorMatrix></filter></defs></g></g></g><g transform="translate(255.87695167397976, 0)"><g class="name-imagesvg"><g><rect fill="#333" fill-opacity="0" stroke-width="2" x="0" y="0" width="33.04153866195281" height="40" class="image-rect"></rect> <svg filter="url(#colors9416665464)" x="0" y="0" width="33.04153866195281" height="40" filtersec="colorsb4824814138" class="image-svg-svg primary" style="overflow: visible;"><svg xmlns="http://www.w3.org/2000/svg" viewBox="0 0 21.94 26.52"><title>资源 25</title><g fill="#323333"><path d="M13.75 12.9h-1.23v1.45h1.23c1.25 0 1.35-.36 1.35-.8s0-.65-1.35-.65z"></path><path d="M20.16 9.48a5.74 5.74 0 0 0 .93-3.2 5.64 5.64 0 0 0-1.47-4C17.9.35 16 0 12.77 0H5.68L0 5.68v20.84h8.52A7.73 7.73 0 0 0 14 24.63a41.18 41.18 0 0 0 6.13-6.11 6.88 6.88 0 0 0 1.78-4.69 5.68 5.68 0 0 0-1.75-4.35zm-1 8.8c-1.85 1.54-3.25 1.7-6.24 1.7H6.55V.86h6.22c3 0 4.7.3 6.21 2a4.84 4.84 0 0 1 1.25 3.44A4.78 4.78 0 0 1 19 9.62a4.81 4.81 0 0 1 2.13 4.21 5.84 5.84 0 0 1-1.96 4.45z"></path><path d="M14.26 6.94c0-.3 0-.45-1-.45h-.72v1h.72c1-.02 1-.22 1-.55z"></path></g></svg></svg> <defs><filter id="colors9416665464"><feColorMatrix type="matrix" values="0 0 0 0 0.19921875  0 0 0 0 0.19921875  0 0 0 0 0.19921875  0 0 0 1 0" class="icon-fecolormatrix"></feColorMatrix></filter> <filter id="colorsf9695941604"><feColorMatrix type="matrix" values="0 0 0 0 0.99609375  0 0 0 0 0.99609375  0 0 0 0 0.99609375  0 0 0 1 0" class="icon-fecolormatrix"></feColorMatrix></filter> <filter id="colorsb4824814138"><feColorMatrix type="matrix" values="0 0 0 0 0  0 0 0 0 0  0 0 0 0 0  0 0 0 1 0" class="icon-fecolormatrix"></feColorMatrix></filter></defs></g></g></g><g transform="translate(288.9184903359326, 0)"><g class="name-imagesvg"><g><rect fill="#333" fill-opacity="0" stroke-width="2" x="0" y="0" width="31.673113966210927" height="40" class="image-rect"></rect> <svg filter="url(#colors6677588416)" x="0" y="0" width="31.673113966210927" height="40" filtersec="colorsb5218542396" class="image-svg-svg primary" style="overflow: visible;"><svg xmlns="http://www.w3.org/2000/svg" viewBox="0 0 21.47 27.18"><title>资源 1</title><g fill="#323333"><path d="M12.68 13.09v.6c0 1.36.67 1.51 1 1.51a.82.82 0 0 0 .84-.81c-.05-.39-.18-.58-1.84-1.3zm.93-6.79c-.27 0-.67.16-.67.5s.06.47 1.53 1.2l-.12-.74c-.12-.81-.24-.96-.74-.96z"></path><path d="M21.47 14.44A5.86 5.86 0 0 0 20 10.3l1.45-1.45v-.9L21.32 7a6.94 6.94 0 0 0-1.55-4.46 7.93 7.93 0 0 0-6-2.58h-.68c-.18 0-.36 0-.53.06h-.26A8.1 8.1 0 0 0 7.4 2.8C3.81 5.58.26 9.83.26 12.53a6 6 0 0 0 1.18 3.68L0 17.65v2.78a7.07 7.07 0 0 0 2 4.63l.21.18.24.22.32.24.27.19.36.21.29.16.4.19.32.13a3.26 3.26 0 0 0 .44.15l.34.11c.16.05.34.08.51.12l.4.04a5.78 5.78 0 0 0 .6.08h1.31c4.31 0 9.49-4.43 12-8.28a7 7 0 0 0 1.44-3.45 8.24 8.24 0 0 0 .02-.91zm-7.79 6.2c-5.27 0-7.14-3.44-7.14-6.39v-1.42h5.52l-.32-.14-.16-.07c-1.3-.52-4.78-1.93-4.78-5.77s3.54-6 7-6a7 7 0 0 1 5.36 2.28 6.11 6.11 0 0 1 1.35 4l.05.9h-6l1.5.68c3.24 1.46 4.57 3.13 4.57 5.77-.02 2.95-1.84 6.16-6.95 6.16z"></path></g></svg></svg> <defs><filter id="colors6677588416"><feColorMatrix type="matrix" values="0 0 0 0 0.19921875  0 0 0 0 0.19921875  0 0 0 0 0.19921875  0 0 0 1 0" class="icon-fecolormatrix"></feColorMatrix></filter> <filter id="colorsf5359045678"><feColorMatrix type="matrix" values="0 0 0 0 0.99609375  0 0 0 0 0.99609375  0 0 0 0 0.99609375  0 0 0 1 0" class="icon-fecolormatrix"></feColorMatrix></filter> <filter id="colorsb5218542396"><feColorMatrix type="matrix" values="0 0 0 0 0  0 0 0 0 0  0 0 0 0 0  0 0 0 1 0" class="icon-fecolormatrix"></feColorMatrix></filter></defs></g></g></g></g></g></g> <g data-gra="path-slogan" fill-rule="" class="tp-slogan" fill="#333" transform="translate(84.28080749511719,46.060829162597656)"><!----> <!----> <g transform="scale(1, 1)"><g transform="scale(1)"><path d="M1.08-7.87L1.08 0L2.08 0L2.08-7.87ZM4.24-7.87L4.24 0L5.18 0L5.18-4.12C5.18-4.53 5.17-4.95 5.14-5.36C5.11-5.77 5.08-6.18 5.05-6.58L5.10-6.58L5.95-4.96L8.81 0L9.84 0L9.84-7.87L8.89-7.87L8.89-3.80C8.89-3.39 8.91-2.97 8.93-2.54C8.96-2.11 8.99-1.70 9.01-1.30L8.96-1.30L8.11-2.93L5.27-7.87ZM12-7.87L12 0L12.95 0L12.95-4.12C12.95-4.53 12.93-4.95 12.91-5.36C12.88-5.77 12.85-6.18 12.82-6.58L12.86-6.58L13.72-4.96L16.57 0L17.60 0L17.60-7.87L16.66-7.87L16.66-3.80C16.66-3.39 16.67-2.97 16.70-2.54C16.73-2.11 16.75-1.70 16.78-1.30L16.73-1.30L15.88-2.93L13.03-7.87ZM22.67 0.14C23.16 0.14 23.62 0.05 24.03-0.14C24.44-0.34 24.80-0.61 25.10-0.97C25.40-1.32 25.63-1.75 25.79-2.26C25.96-2.77 26.04-3.34 26.04-3.97C26.04-4.60 25.96-5.16 25.79-5.66C25.63-6.16 25.40-6.58 25.10-6.93C24.80-7.28 24.44-7.55 24.03-7.73C23.62-7.92 23.16-8.02 22.67-8.02C22.17-8.02 21.72-7.92 21.31-7.74C20.89-7.56 20.54-7.29 20.24-6.94C19.95-6.59 19.72-6.17 19.55-5.67C19.39-5.17 19.31-4.60 19.31-3.97C19.31-3.34 19.39-2.77 19.55-2.26C19.72-1.75 19.95-1.32 20.24-0.97C20.54-0.61 20.89-0.34 21.31-0.14C21.72 0.05 22.17 0.14 22.67 0.14ZM22.67-0.73C22.32-0.73 22.00-0.81 21.71-0.96C21.43-1.11 21.19-1.33 20.98-1.61C20.78-1.90 20.62-2.24 20.51-2.63C20.40-3.03 20.34-3.48 20.34-3.97C20.34-4.46 20.40-4.90 20.51-5.29C20.62-5.68 20.78-6.02 20.98-6.29C21.19-6.56 21.43-6.77 21.71-6.92C22.00-7.07 22.32-7.14 22.67-7.14C23.02-7.14 23.34-7.07 23.62-6.92C23.91-6.77 24.15-6.56 24.35-6.29C24.56-6.02 24.72-5.68 24.83-5.29C24.94-4.90 25.00-4.46 25.00-3.97C25.00-3.48 24.94-3.03 24.83-2.63C24.72-2.24 24.56-1.90 24.35-1.61C24.15-1.33 23.91-1.11 23.62-0.96C23.34-0.81 23.02-0.73 22.67-0.73ZM26.53-7.87L29.05 0L30.22 0L32.71-7.87L31.69-7.87L30.43-3.62C30.30-3.15 30.17-2.72 30.06-2.32C29.95-1.92 29.82-1.48 29.68-1.02L29.63-1.02C29.48-1.48 29.35-1.92 29.24-2.32C29.13-2.72 29.00-3.15 28.86-3.62L27.60-7.87ZM36.97-3.20L34.61-3.20L34.98-4.40C35.12-4.84 35.26-5.28 35.39-5.72C35.52-6.15 35.64-6.60 35.76-7.06L35.81-7.06C35.94-6.60 36.06-6.15 36.19-5.72C36.32-5.28 36.46-4.84 36.60-4.40ZM37.22-2.40L37.97 0L39.04 0L36.37-7.87L35.24-7.87L32.58 0L33.60 0L34.36-2.40ZM41.30-7.03L41.30 0L42.31 0L42.31-7.03L44.69-7.03L44.69-7.87L38.93-7.87L38.93-7.03ZM46.10-7.87L46.10 0L50.76 0L50.76-0.85L47.10-0.85L47.10-3.71L50.09-3.71L50.09-4.56L47.10-4.56L47.10-7.03L50.64-7.03L50.64-7.87ZM51.91 1.46L52.15 2.04C52.64 1.83 53.02 1.54 53.30 1.15C53.58 0.77 53.72 0.32 53.72-0.20C53.72-0.56 53.65-0.85 53.50-1.06C53.35-1.26 53.15-1.37 52.90-1.37C52.70-1.37 52.52-1.31 52.38-1.18C52.24-1.06 52.16-0.89 52.16-0.67C52.16-0.45 52.23-0.28 52.37-0.16C52.51-0.05 52.68 0.01 52.87 0.01C52.93 0.01 52.97 0.01 52.99 0C52.99 0.33 52.90 0.62 52.70 0.86C52.51 1.11 52.25 1.31 51.91 1.46ZM55.42-7.87L55.42 0L59.86 0L59.86-0.85L56.41-0.85L56.41-7.87ZM64.63-3.20L62.27-3.20L62.64-4.40C62.78-4.84 62.92-5.28 63.05-5.72C63.18-6.15 63.30-6.60 63.42-7.06L63.47-7.06C63.60-6.60 63.72-6.15 63.85-5.72C63.98-5.28 64.12-4.84 64.26-4.40ZM64.88-2.40L65.63 0L66.70 0L64.03-7.87L62.90-7.87L60.24 0L61.26 0L62.02-2.40ZM67.81-7.87L67.81 0L70.32 0C70.76 0 71.16-0.05 71.53-0.14C71.90-0.24 72.22-0.38 72.48-0.58C72.74-0.77 72.95-1.01 73.09-1.30C73.24-1.58 73.31-1.92 73.31-2.30C73.31-2.85 73.15-3.28 72.83-3.59C72.51-3.90 72.06-4.10 71.48-4.19L71.48-4.24C71.95-4.36 72.29-4.57 72.52-4.89C72.74-5.21 72.85-5.56 72.85-5.95C72.85-6.30 72.79-6.59 72.65-6.83C72.52-7.08 72.34-7.28 72.10-7.43C71.87-7.58 71.58-7.69 71.25-7.76C70.92-7.84 70.55-7.87 70.15-7.87ZM69.97-4.51L68.81-4.51L68.81-7.08L70.02-7.08C70.64-7.08 71.10-6.99 71.41-6.80C71.71-6.61 71.87-6.30 71.87-5.87C71.87-5.43 71.72-5.09 71.43-4.86C71.14-4.63 70.65-4.51 69.97-4.51ZM70.18-0.79L68.81-0.79L68.81-3.77L70.18-3.77C70.87-3.77 71.40-3.65 71.77-3.43C72.14-3.20 72.32-2.84 72.32-2.35C72.32-1.82 72.14-1.42 71.76-1.17C71.38-0.92 70.86-0.79 70.18-0.79ZM77.77 0.14C78.27 0.14 78.72 0.05 79.13-0.14C79.55-0.34 79.90-0.61 80.20-0.97C80.50-1.32 80.73-1.75 80.90-2.26C81.06-2.77 81.14-3.34 81.14-3.97C81.14-4.60 81.06-5.16 80.90-5.66C80.73-6.16 80.50-6.58 80.20-6.93C79.90-7.28 79.55-7.55 79.13-7.73C78.72-7.92 78.27-8.02 77.77-8.02C77.28-8.02 76.82-7.92 76.41-7.74C76.00-7.56 75.64-7.29 75.35-6.94C75.05-6.59 74.82-6.17 74.66-5.67C74.49-5.17 74.41-4.60 74.41-3.97C74.41-3.34 74.49-2.77 74.66-2.26C74.82-1.75 75.05-1.32 75.35-0.97C75.64-0.61 76.00-0.34 76.41-0.14C76.82 0.05 77.28 0.14 77.77 0.14ZM77.77-0.73C77.42-0.73 77.10-0.81 76.82-0.96C76.53-1.11 76.29-1.33 76.09-1.61C75.88-1.90 75.72-2.24 75.61-2.63C75.50-3.03 75.44-3.48 75.44-3.97C75.44-4.46 75.50-4.90 75.61-5.29C75.72-5.68 75.88-6.02 76.09-6.29C76.29-6.56 76.53-6.77 76.82-6.92C77.10-7.07 77.42-7.14 77.77-7.14C78.12-7.14 78.44-7.07 78.73-6.92C79.01-6.77 79.25-6.56 79.46-6.29C79.66-6.02 79.82-5.68 79.93-5.29C80.04-4.90 80.10-4.46 80.10-3.97C80.10-3.48 80.04-3.03 79.93-2.63C79.82-2.24 79.66-1.90 79.46-1.61C79.25-1.33 79.01-1.11 78.73-0.96C78.44-0.81 78.12-0.73 77.77-0.73ZM83.83-4.14L83.83-7.07L85.15-7.07C85.77-7.07 86.24-6.96 86.57-6.76C86.90-6.55 87.06-6.18 87.06-5.66C87.06-5.15 86.90-4.77 86.57-4.52C86.24-4.27 85.77-4.14 85.15-4.14ZM87.16 0L88.28 0L86.29-3.43C86.83-3.57 87.26-3.82 87.58-4.19C87.90-4.56 88.06-5.05 88.06-5.66C88.06-6.07 87.99-6.42 87.85-6.70C87.72-6.98 87.53-7.20 87.28-7.38C87.04-7.56 86.75-7.68 86.41-7.76C86.07-7.83 85.70-7.87 85.30-7.87L82.84-7.87L82.84 0L83.83 0L83.83-3.32L85.26-3.32ZM93.04-3.20L90.67-3.20L91.04-4.40C91.19-4.84 91.32-5.28 91.45-5.72C91.58-6.15 91.70-6.60 91.82-7.06L91.87-7.06C92.00-6.60 92.13-6.15 92.26-5.72C92.38-5.28 92.52-4.84 92.66-4.40ZM93.29-2.40L94.03 0L95.10 0L92.44-7.87L91.31-7.87L88.64 0L89.66 0L90.42-2.40ZM97.37-7.03L97.37 0L98.38 0L98.38-7.03L100.75-7.03L100.75-7.87L94.99-7.87L94.99-7.03ZM102.17-7.87L102.17 0L106.82 0L106.82-0.85L103.16-0.85L103.16-3.71L106.15-3.71L106.15-4.56L103.16-4.56L103.16-7.03L106.70-7.03L106.70-7.87ZM107.98 1.46L108.22 2.04C108.70 1.83 109.09 1.54 109.37 1.15C109.65 0.77 109.79 0.32 109.79-0.20C109.79-0.56 109.71-0.85 109.57-1.06C109.42-1.26 109.22-1.37 108.96-1.37C108.76-1.37 108.59-1.31 108.44-1.18C108.30-1.06 108.23-0.89 108.23-0.67C108.23-0.45 108.30-0.28 108.44-0.16C108.58-0.05 108.74 0.01 108.94 0.01C108.99 0.01 109.03 0.01 109.06 0C109.06 0.33 108.96 0.62 108.77 0.86C108.58 1.11 108.31 1.31 107.98 1.46ZM111.48-7.87L111.48 0L116.14 0L116.14-0.85L112.48-0.85L112.48-3.71L115.46-3.71L115.46-4.56L112.48-4.56L112.48-7.03L116.02-7.03L116.02-7.87ZM117.80-7.87L117.80 0L122.24 0L122.24-0.85L118.80-0.85L118.80-7.87ZM123.64-7.87L123.64 0L128.29 0L128.29-0.85L124.63-0.85L124.63-3.71L127.62-3.71L127.62-4.56L124.63-4.56L124.63-7.03L128.17-7.03L128.17-7.87ZM128.88-7.87L131.40 0L132.56 0L135.06-7.87L134.04-7.87L132.78-3.62C132.64-3.15 132.52-2.72 132.41-2.32C132.30-1.92 132.17-1.48 132.02-1.02L131.98-1.02C131.82-1.48 131.69-1.92 131.59-2.32C131.48-2.72 131.35-3.15 131.21-3.62L129.95-7.87ZM139.32-3.20L136.96-3.20L137.33-4.40C137.47-4.84 137.61-5.28 137.74-5.72C137.86-6.15 137.99-6.60 138.11-7.06L138.16-7.06C138.28-6.60 138.41-6.15 138.54-5.72C138.67-5.28 138.80-4.84 138.95-4.40ZM139.57-2.40L140.32 0L141.38 0L138.72-7.87L137.59-7.87L134.93 0L135.95 0L136.70-2.40ZM143.65-7.03L143.65 0L144.66 0L144.66-7.03L147.04-7.03L147.04-7.87L141.28-7.87L141.28-7.03ZM148.45-7.87L148.45 0L153.11 0L153.11-0.85L149.45-0.85L149.45-3.71L152.44-3.71L152.44-4.56L149.45-4.56L149.45-7.03L152.99-7.03L152.99-7.87Z" transform="translate(-1.08, 8.016)"></path></g></g></g></g><defs v-gra="od"></defs></svg>