<svg data-v-0dd9719b="" version="1.0" xmlns="http://www.w3.org/2000/svg" xmlns:xlink="http://www.w3.org/1999/xlink" width="100%" height="100%" viewBox="0 0 340.000000 250.000000" preserveAspectRatio="xMidYMid meet" color-interpolation-filters="sRGB" style="margin: auto;">   <g data-v-0dd9719b="" fill="#333" class="iconlettersvg-g iconlettersvg" transform="translate(35.383376766345464,96.95159978792071)"><g><g class="tp-name" transform="translate(0,0)"><g transform="scale(1)"><g transform="translate(0, 0)"><g class="name-imagesvg"><g><rect fill="#333" fill-opacity="0" stroke-width="2" x="0" y="0" width="37.20546289675453" height="40" class="image-rect"></rect> <svg x="0" y="0" width="37.20546289675453" height="40" filtersec="colorsb3946660270" class="image-svg-svg primary" style="overflow: visible;"><svg xmlns="http://www.w3.org/2000/svg" viewBox="0 0 22.9 24.57"><title>资源 6</title><path d="M7.48.93A12.29 12.29 0 0 0 3.61 3.5 12.57 12.57 0 0 0 1 7.37a11.7 11.7 0 0 0-1 4.82A11.94 11.94 0 0 0 1 17a12.78 12.78 0 0 0 2.61 3.94 12.28 12.28 0 0 0 3.85 2.68 11.43 11.43 0 0 0 4.73 1 13.27 13.27 0 0 0 2.81-.39 12 12 0 0 0 2.91-1.07 11.68 11.68 0 0 0 2.7-1.95 12.89 12.89 0 0 0 2.27-2.94h-4.23a9.2 9.2 0 0 1-2.9 2.28 7.75 7.75 0 0 1-3.56.85 7.86 7.86 0 0 1-3.31-.72 9 9 0 0 1-2.79-2 9.69 9.69 0 0 1-1.92-2.88 8.91 8.91 0 0 1-.72-3.58A9.24 9.24 0 0 1 6 5.82a9 9 0 0 1 2.8-1.93 8.14 8.14 0 0 1 3.39-.72V0a12 12 0 0 0-4.71.93z" fill="#ed6c00"></path><path d="M20.63 3.36a11.68 11.68 0 0 0-2.7-1.95l-.19-.08-1.54 2.94a9.19 9.19 0 0 1 2.45 2h4.25a12.89 12.89 0 0 0-2.27-2.91z" fill="#59c3e1"></path></svg></svg> <!----></g></g></g><g transform="translate(37.20546289675453, 0)"><g class="name-imagesvg"><g><rect fill="#333" fill-opacity="0" stroke-width="2" x="0" y="0" width="39.969746045347144" height="40" class="image-rect"></rect> <svg x="0" y="0" width="39.969746045347144" height="40" filtersec="colorsb3002003745" class="image-svg-svg primary" style="overflow: visible;"><svg xmlns="http://www.w3.org/2000/svg" viewBox="0 0 24.63 24.61"><title>资源 8</title><path d="M1 7.58a12 12 0 0 0-1 4.61A12.25 12.25 0 0 0 3.65 21l2.24-2.24a8.28 8.28 0 0 1-2.54-6.86 9.36 9.36 0 0 1 .93-3.28A9.74 9.74 0 0 1 6.14 6a9.48 9.48 0 0 1 2.49-1.78 9.17 9.17 0 0 1 3.21-.93 8.59 8.59 0 0 1 3.52.38 8.17 8.17 0 0 1 3.42 2.18A8.49 8.49 0 0 1 21 9.26a8.83 8.83 0 0 1 .38 3.53 9.26 9.26 0 0 1-.99 3.21 9.77 9.77 0 0 1-1.79 2.53L21 21a12 12 0 0 0 2.64-3.94 12.38 12.38 0 0 0 .1-9.27A11.76 11.76 0 0 0 21 3.61 11.73 11.73 0 0 0 16.86.87 12.71 12.71 0 0 0 12.19 0a12.27 12.27 0 0 0-4.58.92 11.77 11.77 0 0 0-3.94 2.62A12.52 12.52 0 0 0 1 7.58z" fill="#e6002d"></path><path d="M11.84 21.32a9.87 9.87 0 0 1-2-.43L9 24.16a12.66 12.66 0 0 0 3.19.45 12.71 12.71 0 0 0 3.29-.44l-.91-3a8.74 8.74 0 0 1-2.73.15z" fill="#faf054"></path></svg></svg> <!----></g></g></g><g transform="translate(77.17520894210168, 0)"><g class="name-imagesvg"><g><rect fill="#333" fill-opacity="0" stroke-width="2" x="0" y="0" width="33.00266511956778" height="40" class="image-rect"></rect> <svg x="0" y="0" width="33.00266511956778" height="40" filtersec="colorsb6809813313" class="image-svg-svg primary" style="overflow: visible;"><svg xmlns="http://www.w3.org/2000/svg" viewBox="0 0 19.58 23.67"><title>资源 5</title><path d="M19.19 8.16a12.23 12.23 0 0 0-1.85-3.81 11.07 11.07 0 0 0-1.57-1.73 9 9 0 0 0-2.08-1.37A12.31 12.31 0 0 0 11 .34 14.86 14.86 0 0 0 7.68 0H0v3.17h7.64a8.8 8.8 0 0 1 4.08.83 8.24 8.24 0 0 1 2.67 2.16 8.08 8.08 0 0 1 1.41 2.68h3.57c-.06-.22-.11-.45-.18-.68z" fill="#66bf97"></path><path d="M15.53 16a7.28 7.28 0 0 1-2 2.64 7.89 7.89 0 0 1-2.8 1.42 11.51 11.51 0 0 1-3.12.43H0v3.17h7.55a16.72 16.72 0 0 0 4.84-.7 10.63 10.63 0 0 0 4.4-2.72A7.25 7.25 0 0 0 18 18.66a12.28 12.28 0 0 0 .93-2 17.24 17.24 0 0 0 .6-2.3v-.25h-3.4a7.74 7.74 0 0 1-.6 1.89z" fill="#ed6c00"></path><path fill="#ed6c00" d="M0 14.07h3.34v9.6H0z"></path></svg></svg> <!----></g></g></g><g transform="translate(110.17787406166946, 0)"><g class="name-imagesvg"><g><rect fill="#333" fill-opacity="0" stroke-width="2" x="0" y="0" width="21.56316043557815" height="40" class="image-rect"></rect> <svg x="0" y="0" width="21.56316043557815" height="40" filtersec="colorsb4740406782" class="image-svg-svg primary" style="overflow: visible;"><svg xmlns="http://www.w3.org/2000/svg" viewBox="0 0 12.76 23.67"><title>资源 4</title><path d="M0 10.14h12.76v3.17H3.45v7.19h9.31v3.17H0z" fill="#faf054"></path><path fill="#eb6ea5" d="M0 0h12.76v3.17H0z"></path></svg></svg> <!----></g></g></g><g transform="translate(131.7410344972476, 0)"><g class="name-imagesvg"><g><rect fill="#333" fill-opacity="0" stroke-width="2" x="0" y="0" width="30.53654353456761" height="40" class="image-rect"></rect> <svg x="0" y="0" width="30.53654353456761" height="40" filtersec="colorsb7287184366" class="image-svg-svg primary" style="overflow: visible;"><svg xmlns="http://www.w3.org/2000/svg" viewBox="0 0 18.07 23.67"><title>资源 10</title><path d="M7.36 23.67V16L0 0h3.87l6.94 15.13v8.54z" fill="#3071b9"></path><path fill="#faf054" d="M13.97 0h4.1l-3.72 7.82H10.3L13.97 0z"></path></svg></svg> <!----></g></g></g><g transform="translate(162.2775780318152, 0)"><g class="name-imagesvg"><g><rect fill="#333" fill-opacity="0" stroke-width="2" x="0" y="0" width="19.95775307401826" height="40" class="image-rect"></rect> <svg x="0" y="0" width="19.95775307401826" height="40" filtersec="colorsb6199191153" class="image-svg-svg primary" style="overflow: visible;"><svg xmlns="http://www.w3.org/2000/svg" viewBox="0 0 11.81 23.67"><title>资源 2</title><path fill="#e6002d" d="M0 0h3.45v5.87H0z"></path><path d="M0 23.67v-12.1h3.46v8.93l8.21 3.17z" fill="#ed6c00"></path><path fill="#ed6c00" d="M0 19.87h11.81v3.8H0z"></path></svg></svg> <!----></g></g></g><g transform="translate(182.23533110583347, 0)"><g class="name-imagesvg"><g><rect fill="#333" fill-opacity="0" stroke-width="2" x="0" y="0" width="38.005914150617045" height="40" class="image-rect"></rect> <svg x="0" y="0" width="38.005914150617045" height="40" filtersec="colorsb5610172482" class="image-svg-svg primary" style="overflow: visible;"><svg xmlns="http://www.w3.org/2000/svg" viewBox="0 0 22.49 23.67"><title>资源 25</title><path fill="#e6002d" d="M13.36 4.38L11.24 0 0 23.67h4.22l9.14-19.29z"></path><path fill="#faf054" d="M18.27 23.67h4.22l-5.93-12.48h-4.22l5.93 12.48z"></path></svg></svg> <!----></g></g></g><g transform="translate(220.2412452564505, 0)"><g class="name-imagesvg"><g><rect fill="#333" fill-opacity="0" stroke-width="2" x="0" y="0" width="25.29469683140103" height="40" class="image-rect"></rect> <svg x="0" y="0" width="25.29469683140103" height="40" filtersec="colorsb316422540" class="image-svg-svg primary" style="overflow: visible;"><svg xmlns="http://www.w3.org/2000/svg" viewBox="0 0 14.94 23.67"><title>资源 7</title><path d="M13.1 4.13a6.93 6.93 0 0 0-.77-1.47A5.32 5.32 0 0 0 11 1.33a6.54 6.54 0 0 0-2-1A9.64 9.64 0 0 0 6.14 0H0v3.17h6.08c.19 0 .5 0 .94.05a3.78 3.78 0 0 1 1.34.36 3.19 3.19 0 0 1 1.2 1h3.67c-.02-.11-.07-.28-.13-.45z" fill="#3071b9"></path><path d="M12.76 9.52a5.35 5.35 0 0 0 .55-1.25 4 4 0 0 0 .13-.64H9.93a2.93 2.93 0 0 1-.54 1.09 2.89 2.89 0 0 1-1.15.81 5 5 0 0 1-2 .32H0V13h7.78a6 6 0 0 1 1 .16 3.84 3.84 0 0 1 1 .43 3.25 3.25 0 0 1 .88.82 4.54 4.54 0 0 1 .59 1.09 3.34 3.34 0 0 1 .24 1.24 4.48 4.48 0 0 1-.17 1.09 3.32 3.32 0 0 1-.66 1.22 4.14 4.14 0 0 1-1.31 1 4.75 4.75 0 0 1-2.14.41H0v3.17h7.07a9.25 9.25 0 0 0 4-.74 6.61 6.61 0 0 0 2.39-1.79 6.06 6.06 0 0 0 1.19-2.23 8.4 8.4 0 0 0 .32-2.12 6 6 0 0 0-.42-2.36 7.07 7.07 0 0 0-1-1.68 5.56 5.56 0 0 0-1.16-1.09c-.39-.27-.72-.47-1-.62.19-.17.41-.38.65-.63a4.28 4.28 0 0 0 .72-.85z" fill="#eb6ea5"></path><path fill="#eb6ea5" d="M0 9.85h3.34v13.82H0z"></path></svg></svg> <!----></g></g></g><g transform="translate(245.53594208785154, 0)"><g class="name-imagesvg"><g><rect fill="#333" fill-opacity="0" stroke-width="2" x="0" y="0" width="23.696141368530363" height="40" class="image-rect"></rect> <svg x="0" y="0" width="23.696141368530363" height="40" filtersec="colorsb4064472117" class="image-svg-svg primary" style="overflow: visible;"><svg xmlns="http://www.w3.org/2000/svg" viewBox="0 0 14.55 24.57"><title>资源 14</title><path d="M13.83 14A6.48 6.48 0 0 0 12 11.82a8.93 8.93 0 0 0-2.35-1.28l-2.4-.88c-.25-.08-.56-.2-.92-.35a4.84 4.84 0 0 1-1-.58 3.1 3.1 0 0 1-.85-.91 2.58 2.58 0 0 1-.35-1.42 3.16 3.16 0 0 1 .2-1.09 3.52 3.52 0 0 1 .61-1.06 3.32 3.32 0 0 1 1-.78 3 3 0 0 1 1.36-.3 4.19 4.19 0 0 1 1.11.16 2.8 2.8 0 0 1 1.08.56 3 3 0 0 1 .82 1.05 3.82 3.82 0 0 1 .32 1.65h3.45a7 7 0 0 0-.51-2.72 6.18 6.18 0 0 0-1.41-2.08A6 6 0 0 0 10 .46 7.73 7.73 0 0 0 7.29 0a6.45 6.45 0 0 0-2.92.62A6.87 6.87 0 0 0 2.3 2.19a6.39 6.39 0 0 0-1.23 2.08 6.45 6.45 0 0 0-.4 2.16 7.89 7.89 0 0 0 .39 2.45 4.63 4.63 0 0 0 1.21 2c.28.26.55.49.8.69a6 6 0 0 0 .93.6 13.65 13.65 0 0 0 1.33.6c.52.21 1.17.47 2 .77l1.24.46a5.21 5.21 0 0 1 1.23.67 3.28 3.28 0 0 1 .93 1.06 3.2 3.2 0 0 1 .37 1.63h3.45a7.13 7.13 0 0 0-.72-3.36z" fill="#ed6c00"></path><path d="M5.21 20.84a3.85 3.85 0 0 1-1.15-1.28 4.55 4.55 0 0 1-.49-1.44 7.11 7.11 0 0 1-.12-1H0a7.62 7.62 0 0 0 .69 3.38 7.25 7.25 0 0 0 1.74 2.32 6.71 6.71 0 0 0 2.35 1.33 8.15 8.15 0 0 0 2.51.42V21.4a3.49 3.49 0 0 1-2.08-.56z" fill="#e6002d"></path></svg></svg> <!----></g></g></g></g></g></g> <g data-gra="path-slogan" fill-rule="" class="tp-slogan" fill="#333" transform="translate(58.602142333984375,46.05078125)"><!----> <!----> <g transform="scale(1, 1)"><g transform="scale(1)"><path d="M1.08-7.87L1.08 0L2.08 0L2.08-7.87ZM4.24-7.87L4.24 0L5.18 0L5.18-4.12C5.18-4.53 5.17-4.95 5.14-5.36C5.11-5.77 5.08-6.18 5.05-6.58L5.10-6.58L5.95-4.96L8.81 0L9.84 0L9.84-7.87L8.89-7.87L8.89-3.80C8.89-3.39 8.91-2.97 8.93-2.54C8.96-2.11 8.99-1.70 9.01-1.30L8.96-1.30L8.11-2.93L5.27-7.87ZM12-7.87L12 0L12.95 0L12.95-4.12C12.95-4.53 12.93-4.95 12.91-5.36C12.88-5.77 12.85-6.18 12.82-6.58L12.86-6.58L13.72-4.96L16.57 0L17.60 0L17.60-7.87L16.66-7.87L16.66-3.80C16.66-3.39 16.67-2.97 16.70-2.54C16.73-2.11 16.75-1.70 16.78-1.30L16.73-1.30L15.88-2.93L13.03-7.87ZM22.67 0.14C23.16 0.14 23.62 0.05 24.03-0.14C24.44-0.34 24.80-0.61 25.10-0.97C25.40-1.32 25.63-1.75 25.79-2.26C25.96-2.77 26.04-3.34 26.04-3.97C26.04-4.60 25.96-5.16 25.79-5.66C25.63-6.16 25.40-6.58 25.10-6.93C24.80-7.28 24.44-7.55 24.03-7.73C23.62-7.92 23.16-8.02 22.67-8.02C22.17-8.02 21.72-7.92 21.31-7.74C20.89-7.56 20.54-7.29 20.24-6.94C19.95-6.59 19.72-6.17 19.55-5.67C19.39-5.17 19.31-4.60 19.31-3.97C19.31-3.34 19.39-2.77 19.55-2.26C19.72-1.75 19.95-1.32 20.24-0.97C20.54-0.61 20.89-0.34 21.31-0.14C21.72 0.05 22.17 0.14 22.67 0.14ZM22.67-0.73C22.32-0.73 22.00-0.81 21.71-0.96C21.43-1.11 21.19-1.33 20.98-1.61C20.78-1.90 20.62-2.24 20.51-2.63C20.40-3.03 20.34-3.48 20.34-3.97C20.34-4.46 20.40-4.90 20.51-5.29C20.62-5.68 20.78-6.02 20.98-6.29C21.19-6.56 21.43-6.77 21.71-6.92C22.00-7.07 22.32-7.14 22.67-7.14C23.02-7.14 23.34-7.07 23.62-6.92C23.91-6.77 24.15-6.56 24.35-6.29C24.56-6.02 24.72-5.68 24.83-5.29C24.94-4.90 25.00-4.46 25.00-3.97C25.00-3.48 24.94-3.03 24.83-2.63C24.72-2.24 24.56-1.90 24.35-1.61C24.15-1.33 23.91-1.11 23.62-0.96C23.34-0.81 23.02-0.73 22.67-0.73ZM26.53-7.87L29.05 0L30.22 0L32.71-7.87L31.69-7.87L30.43-3.62C30.30-3.15 30.17-2.72 30.06-2.32C29.95-1.92 29.82-1.48 29.68-1.02L29.63-1.02C29.48-1.48 29.35-1.92 29.24-2.32C29.13-2.72 29.00-3.15 28.86-3.62L27.60-7.87ZM36.97-3.20L34.61-3.20L34.98-4.40C35.12-4.84 35.26-5.28 35.39-5.72C35.52-6.15 35.64-6.60 35.76-7.06L35.81-7.06C35.94-6.60 36.06-6.15 36.19-5.72C36.32-5.28 36.46-4.84 36.60-4.40ZM37.22-2.40L37.97 0L39.04 0L36.37-7.87L35.24-7.87L32.58 0L33.60 0L34.36-2.40ZM41.30-7.03L41.30 0L42.31 0L42.31-7.03L44.69-7.03L44.69-7.87L38.93-7.87L38.93-7.03ZM46.10-7.87L46.10 0L50.76 0L50.76-0.85L47.10-0.85L47.10-3.71L50.09-3.71L50.09-4.56L47.10-4.56L47.10-7.03L50.64-7.03L50.64-7.87ZM51.91 1.46L52.15 2.04C52.64 1.83 53.02 1.54 53.30 1.15C53.58 0.77 53.72 0.32 53.72-0.20C53.72-0.56 53.65-0.85 53.50-1.06C53.35-1.26 53.15-1.37 52.90-1.37C52.70-1.37 52.52-1.31 52.38-1.18C52.24-1.06 52.16-0.89 52.16-0.67C52.16-0.45 52.23-0.28 52.37-0.16C52.51-0.05 52.68 0.01 52.87 0.01C52.93 0.01 52.97 0.01 52.99 0C52.99 0.33 52.90 0.62 52.70 0.86C52.51 1.11 52.25 1.31 51.91 1.46ZM55.42-7.87L55.42 0L59.86 0L59.86-0.85L56.41-0.85L56.41-7.87ZM64.63-3.20L62.27-3.20L62.64-4.40C62.78-4.84 62.92-5.28 63.05-5.72C63.18-6.15 63.30-6.60 63.42-7.06L63.47-7.06C63.60-6.60 63.72-6.15 63.85-5.72C63.98-5.28 64.12-4.84 64.26-4.40ZM64.88-2.40L65.63 0L66.70 0L64.03-7.87L62.90-7.87L60.24 0L61.26 0L62.02-2.40ZM67.81-7.87L67.81 0L70.32 0C70.76 0 71.16-0.05 71.53-0.14C71.90-0.24 72.22-0.38 72.48-0.58C72.74-0.77 72.95-1.01 73.09-1.30C73.24-1.58 73.31-1.92 73.31-2.30C73.31-2.85 73.15-3.28 72.83-3.59C72.51-3.90 72.06-4.10 71.48-4.19L71.48-4.24C71.95-4.36 72.29-4.57 72.52-4.89C72.74-5.21 72.85-5.56 72.85-5.95C72.85-6.30 72.79-6.59 72.65-6.83C72.52-7.08 72.34-7.28 72.10-7.43C71.87-7.58 71.58-7.69 71.25-7.76C70.92-7.84 70.55-7.87 70.15-7.87ZM69.97-4.51L68.81-4.51L68.81-7.08L70.02-7.08C70.64-7.08 71.10-6.99 71.41-6.80C71.71-6.61 71.87-6.30 71.87-5.87C71.87-5.43 71.72-5.09 71.43-4.86C71.14-4.63 70.65-4.51 69.97-4.51ZM70.18-0.79L68.81-0.79L68.81-3.77L70.18-3.77C70.87-3.77 71.40-3.65 71.77-3.43C72.14-3.20 72.32-2.84 72.32-2.35C72.32-1.82 72.14-1.42 71.76-1.17C71.38-0.92 70.86-0.79 70.18-0.79ZM77.77 0.14C78.27 0.14 78.72 0.05 79.13-0.14C79.55-0.34 79.90-0.61 80.20-0.97C80.50-1.32 80.73-1.75 80.90-2.26C81.06-2.77 81.14-3.34 81.14-3.97C81.14-4.60 81.06-5.16 80.90-5.66C80.73-6.16 80.50-6.58 80.20-6.93C79.90-7.28 79.55-7.55 79.13-7.73C78.72-7.92 78.27-8.02 77.77-8.02C77.28-8.02 76.82-7.92 76.41-7.74C76.00-7.56 75.64-7.29 75.35-6.94C75.05-6.59 74.82-6.17 74.66-5.67C74.49-5.17 74.41-4.60 74.41-3.97C74.41-3.34 74.49-2.77 74.66-2.26C74.82-1.75 75.05-1.32 75.35-0.97C75.64-0.61 76.00-0.34 76.41-0.14C76.82 0.05 77.28 0.14 77.77 0.14ZM77.77-0.73C77.42-0.73 77.10-0.81 76.82-0.96C76.53-1.11 76.29-1.33 76.09-1.61C75.88-1.90 75.72-2.24 75.61-2.63C75.50-3.03 75.44-3.48 75.44-3.97C75.44-4.46 75.50-4.90 75.61-5.29C75.72-5.68 75.88-6.02 76.09-6.29C76.29-6.56 76.53-6.77 76.82-6.92C77.10-7.07 77.42-7.14 77.77-7.14C78.12-7.14 78.44-7.07 78.73-6.92C79.01-6.77 79.25-6.56 79.46-6.29C79.66-6.02 79.82-5.68 79.93-5.29C80.04-4.90 80.10-4.46 80.10-3.97C80.10-3.48 80.04-3.03 79.93-2.63C79.82-2.24 79.66-1.90 79.46-1.61C79.25-1.33 79.01-1.11 78.73-0.96C78.44-0.81 78.12-0.73 77.77-0.73ZM83.83-4.14L83.83-7.07L85.15-7.07C85.77-7.07 86.24-6.96 86.57-6.76C86.90-6.55 87.06-6.18 87.06-5.66C87.06-5.15 86.90-4.77 86.57-4.52C86.24-4.27 85.77-4.14 85.15-4.14ZM87.16 0L88.28 0L86.29-3.43C86.83-3.57 87.26-3.82 87.58-4.19C87.90-4.56 88.06-5.05 88.06-5.66C88.06-6.07 87.99-6.42 87.85-6.70C87.72-6.98 87.53-7.20 87.28-7.38C87.04-7.56 86.75-7.68 86.41-7.76C86.07-7.83 85.70-7.87 85.30-7.87L82.84-7.87L82.84 0L83.83 0L83.83-3.32L85.26-3.32ZM93.04-3.20L90.67-3.20L91.04-4.40C91.19-4.84 91.32-5.28 91.45-5.72C91.58-6.15 91.70-6.60 91.82-7.06L91.87-7.06C92.00-6.60 92.13-6.15 92.26-5.72C92.38-5.28 92.52-4.84 92.66-4.40ZM93.29-2.40L94.03 0L95.10 0L92.44-7.87L91.31-7.87L88.64 0L89.66 0L90.42-2.40ZM97.37-7.03L97.37 0L98.38 0L98.38-7.03L100.75-7.03L100.75-7.87L94.99-7.87L94.99-7.03ZM102.17-7.87L102.17 0L106.82 0L106.82-0.85L103.16-0.85L103.16-3.71L106.15-3.71L106.15-4.56L103.16-4.56L103.16-7.03L106.70-7.03L106.70-7.87ZM107.98 1.46L108.22 2.04C108.70 1.83 109.09 1.54 109.37 1.15C109.65 0.77 109.79 0.32 109.79-0.20C109.79-0.56 109.71-0.85 109.57-1.06C109.42-1.26 109.22-1.37 108.96-1.37C108.76-1.37 108.59-1.31 108.44-1.18C108.30-1.06 108.23-0.89 108.23-0.67C108.23-0.45 108.30-0.28 108.44-0.16C108.58-0.05 108.74 0.01 108.94 0.01C108.99 0.01 109.03 0.01 109.06 0C109.06 0.33 108.96 0.62 108.77 0.86C108.58 1.11 108.31 1.31 107.98 1.46ZM111.48-7.87L111.48 0L116.14 0L116.14-0.85L112.48-0.85L112.48-3.71L115.46-3.71L115.46-4.56L112.48-4.56L112.48-7.03L116.02-7.03L116.02-7.87ZM117.80-7.87L117.80 0L122.24 0L122.24-0.85L118.80-0.85L118.80-7.87ZM123.64-7.87L123.64 0L128.29 0L128.29-0.85L124.63-0.85L124.63-3.71L127.62-3.71L127.62-4.56L124.63-4.56L124.63-7.03L128.17-7.03L128.17-7.87ZM128.88-7.87L131.40 0L132.56 0L135.06-7.87L134.04-7.87L132.78-3.62C132.64-3.15 132.52-2.72 132.41-2.32C132.30-1.92 132.17-1.48 132.02-1.02L131.98-1.02C131.82-1.48 131.69-1.92 131.59-2.32C131.48-2.72 131.35-3.15 131.21-3.62L129.95-7.87ZM139.32-3.20L136.96-3.20L137.33-4.40C137.47-4.84 137.61-5.28 137.74-5.72C137.86-6.15 137.99-6.60 138.11-7.06L138.16-7.06C138.28-6.60 138.41-6.15 138.54-5.72C138.67-5.28 138.80-4.84 138.95-4.40ZM139.57-2.40L140.32 0L141.38 0L138.72-7.87L137.59-7.87L134.93 0L135.95 0L136.70-2.40ZM143.65-7.03L143.65 0L144.66 0L144.66-7.03L147.04-7.03L147.04-7.87L141.28-7.87L141.28-7.03ZM148.45-7.87L148.45 0L153.11 0L153.11-0.85L149.45-0.85L149.45-3.71L152.44-3.71L152.44-4.56L149.45-4.56L149.45-7.03L152.99-7.03L152.99-7.87Z" transform="translate(-1.08, 8.016)"></path></g></g></g></g><defs v-gra="od"></defs></svg>