<svg data-v-0dd9719b="" version="1.1" xmlns="http://www.w3.org/2000/svg" xmlns:xlink="http://www.w3.org/1999/xlink" width="100%" height="100%" viewBox="0 0 340.000000 250.000000" preserveAspectRatio="xMidYMid meet" color-interpolation-filters="sRGB" style="margin: auto;" xmlns:xlink="http://www.w3.org/1999/xlink" xmlns:svgjs="http://svgjs.com/svgjs"> <g data-v-0dd9719b="" fill="#8dc21f" class="icon-text-wrapper icon-svg-group iconsvg" transform="translate(47.77000427246094,96.83786201477051)"><g class="iconsvg-imagesvg" transform="matrix(1,0,0,1,0,0)" opacity="0"><g><rect fill="#8dc21f" fill-opacity="0" stroke-width="2" x="0" y="0" width="60" height="56.32427764113925" class="image-rect"></rect> <svg x="0" y="0" width="60" height="56.32427764113925" filtersec="colorsb1883406194" class="image-svg-svg primary" style="overflow: visible;"><svg version="1.1" id="图层_1" xmlns="http://www.w3.org/2000/svg" xmlns:xlink="http://www.w3.org/1999/xlink" x="0px" y="0px" viewBox="1.6487674713134766 0.8700000047683716 103.35123443603516 97.0199966430664" enable-background="new 0 0 106 99" xml:space="preserve">
    <g>
        <path fill="#8DC21F" d="M78.87,89.82c-25.41,0-46.01-12.28-46.01-27.44c0-5.33,2.55-10.31,6.96-14.52
            c-12.01,4.95-19.88,13.22-19.88,22.59c0,15.15,20.6,27.44,46.01,27.44c16.47,0,30.92-5.17,39.05-12.93
            C97.58,88.03,88.58,89.82,78.87,89.82z"></path>
        <path fill="#138F2E" d="M11.48,67.37c12.71-22.01,33.65-33.71,46.78-26.12c4.61,2.66,7.64,7.36,9.08,13.28
            c1.72-12.88-1.51-23.83-9.62-28.51c-13.13-7.58-34.07,4.12-46.77,26.12C2.71,66.42-0.03,81.51,2.63,92.43
            C3.69,84.47,6.63,75.78,11.48,67.37z"></path>
        <path fill="#CEDA00" d="M64.08,21.07c12.71,22,12.37,45.99-0.76,53.57c-4.62,2.66-10.21,2.93-16.05,1.22
            c10.29,7.92,21.39,10.61,29.5,5.92c13.13-7.58,13.47-31.56,0.76-53.57C69.3,13.95,57.59,4.02,46.8,0.87
            C53.17,5.77,59.23,12.67,64.08,21.07z"></path>
    </g>
    </svg></svg> <!----></g></g> <g transform="translate(67,4.219139099121094)"><g data-gra="path-name" fill-rule="" class="tp-name iconsvg-namesvg" transform="matrix(1,0,0,1,0,0)" opacity="1"><g transform="scale(1)"><g><path d="M19.13-22.55L19.13-22.55Q20.01-22.11 20.16-21.16 20.32-20.21 19.67-19.44L19.67-19.44Q19.23-18.83 18.54-18.76 17.84-18.69 17.13-19.03L17.13-19.03Q16.32-19.4 15.42-19.6 14.53-19.81 13.54-19.81L13.54-19.81Q11.72-19.81 10.28-19.23 8.84-18.66 7.82-17.59 6.81-16.52 6.28-15.07 5.76-13.61 5.76-11.85L5.76-11.85Q5.76-9.79 6.35-8.26 6.94-6.74 7.99-5.72 9.04-4.71 10.46-4.22 11.88-3.72 13.54-3.72L13.54-3.72Q14.46-3.72 15.37-3.89 16.29-4.06 17.13-4.5L17.13-4.5Q17.84-4.84 18.54-4.74 19.23-4.64 19.71-4.03L19.71-4.03Q20.38-3.18 20.2-2.29 20.01-1.39 19.16-0.98L19.16-0.98Q18.28-0.54 17.35-0.25 16.42 0.03 15.47 0.19 14.53 0.34 13.54 0.34L13.54 0.34Q11.11 0.34 8.92-0.44 6.74-1.22 5.03-2.74 3.32-4.27 2.34-6.55 1.35-8.84 1.35-11.85L1.35-11.85Q1.35-14.46 2.25-16.66 3.15-18.86 4.79-20.47 6.43-22.08 8.67-22.97 10.9-23.87 13.54-23.87L13.54-23.87Q15.03-23.87 16.46-23.53 17.88-23.19 19.13-22.55ZM40.84-9.04L40.84-9.04Q40.84-6.26 39.6-4.15 38.36-2.03 36.28-0.85 34.2 0.34 31.63 0.34L31.63 0.34Q29.05 0.34 26.97-0.85 24.89-2.03 23.65-4.15 22.42-6.26 22.42-9.04L22.42-9.04Q22.42-11.82 23.65-13.93 24.89-16.05 26.97-17.25 29.05-18.45 31.63-18.45L31.63-18.45Q34.2-18.45 36.28-17.25 38.36-16.05 39.6-13.93 40.84-11.82 40.84-9.04ZM36.77-9.04L36.77-9.04Q36.77-10.77 36.08-12.04 35.38-13.31 34.22-14.02 33.05-14.73 31.63-14.73L31.63-14.73Q30.2-14.73 29.03-14.02 27.87-13.31 27.17-12.04 26.48-10.77 26.48-9.04L26.48-9.04Q26.48-7.35 27.17-6.08 27.87-4.81 29.03-4.1 30.2-3.39 31.63-3.39L31.63-3.39Q33.05-3.39 34.22-4.1 35.38-4.81 36.08-6.08 36.77-7.35 36.77-9.04ZM58.88-25.06L58.88-25.06Q59.76-25.06 60.34-24.48 60.91-23.91 60.91-22.99L60.91-22.99 60.91-2.07Q60.91-1.19 60.34-0.59 59.76 0 58.88 0L58.88 0Q58 0 57.43-0.59 56.85-1.19 56.85-2.07L56.85-2.07 56.85-3.72 57.6-3.42Q57.6-2.98 57.12-2.35 56.65-1.73 55.84-1.12 55.02-0.51 53.92-0.08 52.82 0.34 51.53 0.34L51.53 0.34Q49.2 0.34 47.3-0.86 45.41-2.07 44.31-4.18 43.21-6.3 43.21-9.04L43.21-9.04Q43.21-11.82 44.31-13.93 45.41-16.05 47.27-17.25 49.13-18.45 51.4-18.45L51.4-18.45Q52.86-18.45 54.07-18.01 55.29-17.57 56.19-16.9 57.09-16.22 57.58-15.52 58.07-14.83 58.07-14.36L58.07-14.36 56.85-13.92 56.85-22.99Q56.85-23.87 57.43-24.46 58-25.06 58.88-25.06ZM52.04-3.39L52.04-3.39Q53.53-3.39 54.65-4.13 55.77-4.88 56.39-6.16 57.02-7.45 57.02-9.04L57.02-9.04Q57.02-10.67 56.39-11.95 55.77-13.24 54.65-13.98 53.53-14.73 52.04-14.73L52.04-14.73Q50.59-14.73 49.47-13.98 48.35-13.24 47.73-11.95 47.1-10.67 47.1-9.04L47.1-9.04Q47.1-7.45 47.73-6.16 48.35-4.88 49.47-4.13 50.59-3.39 52.04-3.39ZM73.68 0.34L73.68 0.34Q70.8 0.34 68.69-0.86 66.57-2.07 65.43-4.13 64.3-6.2 64.3-8.8L64.3-8.8Q64.3-11.85 65.54-14 66.77-16.15 68.77-17.3 70.77-18.45 73-18.45L73-18.45Q74.73-18.45 76.27-17.74 77.81-17.03 79-15.8 80.18-14.56 80.87-12.93 81.57-11.31 81.57-9.48L81.57-9.48Q81.53-8.67 80.93-8.16 80.32-7.65 79.5-7.65L79.5-7.65 66.57-7.65 65.55-11.04 77.98-11.04 77.23-10.36 77.23-11.28Q77.17-12.26 76.54-13.04 75.91-13.81 74.98-14.27 74.05-14.73 73-14.73L73-14.73Q71.99-14.73 71.11-14.46 70.23-14.19 69.58-13.54 68.94-12.9 68.57-11.82 68.19-10.73 68.19-9.07L68.19-9.07Q68.19-7.25 68.96-5.98 69.72-4.71 70.92-4.05 72.12-3.39 73.48-3.39L73.48-3.39Q74.73-3.39 75.47-3.59 76.22-3.79 76.68-4.08 77.13-4.37 77.51-4.57L77.51-4.57Q78.12-4.88 78.66-4.88L78.66-4.88Q79.4-4.88 79.89-4.37 80.38-3.86 80.38-3.18L80.38-3.18Q80.38-2.27 79.44-1.52L79.44-1.52Q78.56-0.78 76.96-0.22 75.37 0.34 73.68 0.34ZM98.23-18.12L98.23-18.12Q99.11-18.12 99.68-17.52 100.26-16.93 100.26-16.05L100.26-16.05 100.26-1.66Q100.26 1.46 99.09 3.3 97.92 5.15 95.96 5.96 94 6.77 91.56 6.77L91.56 6.77Q90.47 6.77 89.26 6.6 88.04 6.43 87.26 6.09L87.26 6.09Q86.24 5.65 85.85 4.99 85.46 4.33 85.7 3.59L85.7 3.59Q86 2.61 86.68 2.25 87.36 1.9 88.1 2.17L88.1 2.17Q88.65 2.34 89.53 2.69 90.41 3.05 91.56 3.05L91.56 3.05Q93.12 3.05 94.15 2.62 95.18 2.2 95.71 1.2 96.23 0.2 96.23-1.52L96.23-1.52 96.23-3.79 96.94-2.98Q96.37-1.86 95.5-1.13 94.64-0.41 93.45-0.03 92.27 0.34 90.74 0.34L90.74 0.34Q88.95 0.34 87.61-0.49 86.28-1.32 85.53-2.79 84.79-4.27 84.79-6.16L84.79-6.16 84.79-16.05Q84.79-16.93 85.36-17.52 85.94-18.12 86.82-18.12L86.82-18.12Q87.7-18.12 88.27-17.52 88.85-16.93 88.85-16.05L88.85-16.05 88.85-7.38Q88.85-5.18 89.81-4.28 90.78-3.39 92.51-3.39L92.51-3.39Q93.69-3.39 94.5-3.84 95.32-4.3 95.76-5.2 96.2-6.09 96.2-7.38L96.2-7.38 96.2-16.05Q96.2-16.93 96.77-17.52 97.35-18.12 98.23-18.12ZM108.49-3.96L118.07-3.96Q118.95-3.96 119.54-3.4 120.14-2.84 120.14-1.96L120.14-1.96Q120.14-1.12 119.54-0.56 118.95 0 118.07 0L118.07 0 107.07 0Q106.19 0 105.59-0.59 105-1.19 105-2.07L105-2.07 105-21.64Q105-22.52 105.61-23.11 106.22-23.7 107.17-23.7L107.17-23.7Q107.98-23.7 108.61-23.11 109.23-22.52 109.23-21.64L109.23-21.64 109.23-3.39 108.49-3.96ZM138.35-18.45L138.35-18.45Q139.23-18.45 139.81-17.88 140.38-17.3 140.38-16.39L140.38-16.39 140.38-2.07Q140.38-1.19 139.81-0.59 139.23 0 138.35 0L138.35 0Q137.47 0 136.9-0.59 136.32-1.19 136.32-2.07L136.32-2.07 136.32-3.72 137.07-3.42Q137.07-2.98 136.59-2.35 136.12-1.73 135.3-1.12 134.49-0.51 133.39-0.08 132.29 0.34 131 0.34L131 0.34Q128.67 0.34 126.77-0.86 124.88-2.07 123.78-4.18 122.67-6.3 122.67-9.04L122.67-9.04Q122.67-11.82 123.78-13.93 124.88-16.05 126.74-17.25 128.6-18.45 130.87-18.45L130.87-18.45Q132.33-18.45 133.54-18.01 134.76-17.57 135.66-16.9 136.56-16.22 137.05-15.52 137.54-14.83 137.54-14.36L137.54-14.36 136.32-13.92 136.32-16.39Q136.32-17.27 136.9-17.86 137.47-18.45 138.35-18.45ZM131.51-3.39L131.51-3.39Q133-3.39 134.12-4.13 135.24-4.88 135.86-6.16 136.49-7.45 136.49-9.04L136.49-9.04Q136.49-10.67 135.86-11.95 135.24-13.24 134.12-13.98 133-14.73 131.51-14.73L131.51-14.73Q130.06-14.73 128.94-13.98 127.82-13.24 127.2-11.95 126.57-10.67 126.57-9.04L126.57-9.04Q126.57-7.45 127.2-6.16 127.82-4.88 128.94-4.13 130.06-3.39 131.51-3.39ZM154.16-18.45L154.16-18.45Q156.53-18.45 158.41-17.25 160.29-16.05 161.39-13.95 162.49-11.85 162.49-9.07L162.49-9.07Q162.49-6.3 161.39-4.18 160.29-2.07 158.45-0.86 156.6 0.34 154.3 0.34L154.3 0.34Q152.95 0.34 151.76-0.1 150.58-0.54 149.68-1.22 148.78-1.9 148.29-2.59 147.8-3.28 147.8-3.76L147.8-3.76 148.85-4.2 148.85-1.73Q148.85-0.85 148.27-0.25 147.7 0.34 146.82 0.34L146.82 0.34Q145.94 0.34 145.36-0.24 144.79-0.81 144.79-1.73L144.79-1.73 144.79-22.99Q144.79-23.87 145.36-24.46 145.94-25.06 146.82-25.06L146.82-25.06Q147.7-25.06 148.27-24.46 148.85-23.87 148.85-22.99L148.85-22.99 148.85-14.39 148.27-14.7Q148.27-15.14 148.75-15.76 149.22-16.39 150.03-17.01 150.85-17.64 151.91-18.05 152.98-18.45 154.16-18.45ZM153.66-14.73L153.66-14.73Q152.17-14.73 151.05-13.98 149.93-13.24 149.31-11.97 148.68-10.7 148.68-9.07L148.68-9.07Q148.68-7.48 149.31-6.18 149.93-4.88 151.05-4.13 152.17-3.39 153.66-3.39L153.66-3.39Q155.15-3.39 156.25-4.13 157.35-4.88 157.97-6.18 158.6-7.48 158.6-9.07L158.6-9.07Q158.6-10.7 157.97-11.97 157.35-13.24 156.25-13.98 155.15-14.73 153.66-14.73ZM164.83-2.81L164.83-2.81Q164.49-3.28 164.53-4.03 164.56-4.77 165.41-5.32L165.41-5.32Q165.95-5.65 166.56-5.6 167.17-5.55 167.74-4.98L167.74-4.98Q168.72-4 169.81-3.45 170.89-2.91 172.52-2.91L172.52-2.91Q173.02-2.95 173.63-3.06 174.24-3.18 174.7-3.61 175.16-4.03 175.16-4.91L175.16-4.91Q175.16-5.65 174.65-6.09 174.14-6.53 173.31-6.84 172.48-7.14 171.47-7.42L171.47-7.42Q170.42-7.72 169.32-8.09 168.22-8.47 167.3-9.06 166.39-9.65 165.81-10.63 165.24-11.61 165.24-13.1L165.24-13.1Q165.24-14.8 166.19-15.98 167.13-17.17 168.64-17.81 170.15-18.45 171.81-18.45L171.81-18.45Q172.86-18.45 174.01-18.2 175.16-17.95 176.21-17.39 177.26-16.83 177.97-15.91L177.97-15.91Q178.34-15.41 178.41-14.7 178.48-13.98 177.77-13.41L177.77-13.41Q177.26-13 176.58-13.05 175.9-13.1 175.46-13.51L175.46-13.51Q174.89-14.26 173.92-14.7 172.96-15.14 171.7-15.14L171.7-15.14Q171.2-15.14 170.6-15.02 170.01-14.9 169.57-14.51 169.13-14.12 169.13-13.27L169.13-13.27Q169.13-12.49 169.64-12.04 170.15-11.58 171.01-11.29 171.87-11 172.86-10.73L172.86-10.73Q173.87-10.46 174.92-10.09 175.97-9.72 176.85-9.11 177.73-8.5 178.27-7.53 178.81-6.57 178.81-5.08L178.81-5.08Q178.81-3.35 177.8-2.13 176.78-0.91 175.26-0.29 173.74 0.34 172.14 0.34L172.14 0.34Q170.15 0.34 168.15-0.36 166.15-1.05 164.83-2.81Z" transform="translate(-1.350000023841858, 25.059999465942383)"></path></g> <!----> <!----> <!----> <!----> <!----> <!----> <!----></g></g> <g data-gra="path-slogan" fill-rule="" class="tp-slogan iconsvg-slogansvg" fill="#8dc21f" transform="matrix(1,0,0,1,5,37.829999923706055)" opacity="1"><rect x="0" height="1" y="4.53000020980835" width="4.714996337890625"></rect> <rect height="1" y="4.53000020980835" width="4.714996337890625" x="162.7449951171875"></rect> <g transform="translate(7.714996337890625,0)"><g transform="scale(1)"><path d="M1.08-7.87L1.08 0L2.08 0L2.08-7.87ZM4.24-7.87L4.24 0L5.18 0L5.18-4.12C5.18-4.53 5.17-4.95 5.14-5.36C5.11-5.77 5.08-6.18 5.05-6.58L5.10-6.58L5.95-4.96L8.81 0L9.84 0L9.84-7.87L8.89-7.87L8.89-3.80C8.89-3.39 8.91-2.97 8.93-2.54C8.96-2.11 8.99-1.70 9.01-1.30L8.96-1.30L8.11-2.93L5.27-7.87ZM12-7.87L12 0L12.95 0L12.95-4.12C12.95-4.53 12.93-4.95 12.91-5.36C12.88-5.77 12.85-6.18 12.82-6.58L12.86-6.58L13.72-4.96L16.57 0L17.60 0L17.60-7.87L16.66-7.87L16.66-3.80C16.66-3.39 16.67-2.97 16.70-2.54C16.73-2.11 16.75-1.70 16.78-1.30L16.73-1.30L15.88-2.93L13.03-7.87ZM22.67 0.14C23.16 0.14 23.62 0.05 24.03-0.14C24.44-0.34 24.80-0.61 25.10-0.97C25.40-1.32 25.63-1.75 25.79-2.26C25.96-2.77 26.04-3.34 26.04-3.97C26.04-4.60 25.96-5.16 25.79-5.66C25.63-6.16 25.40-6.58 25.10-6.93C24.80-7.28 24.44-7.55 24.03-7.73C23.62-7.92 23.16-8.02 22.67-8.02C22.17-8.02 21.72-7.92 21.31-7.74C20.89-7.56 20.54-7.29 20.24-6.94C19.95-6.59 19.72-6.17 19.55-5.67C19.39-5.17 19.31-4.60 19.31-3.97C19.31-3.34 19.39-2.77 19.55-2.26C19.72-1.75 19.95-1.32 20.24-0.97C20.54-0.61 20.89-0.34 21.31-0.14C21.72 0.05 22.17 0.14 22.67 0.14ZM22.67-0.73C22.32-0.73 22.00-0.81 21.71-0.96C21.43-1.11 21.19-1.33 20.98-1.61C20.78-1.90 20.62-2.24 20.51-2.63C20.40-3.03 20.34-3.48 20.34-3.97C20.34-4.46 20.40-4.90 20.51-5.29C20.62-5.68 20.78-6.02 20.98-6.29C21.19-6.56 21.43-6.77 21.71-6.92C22.00-7.07 22.32-7.14 22.67-7.14C23.02-7.14 23.34-7.07 23.62-6.92C23.91-6.77 24.15-6.56 24.35-6.29C24.56-6.02 24.72-5.68 24.83-5.29C24.94-4.90 25.00-4.46 25.00-3.97C25.00-3.48 24.94-3.03 24.83-2.63C24.72-2.24 24.56-1.90 24.35-1.61C24.15-1.33 23.91-1.11 23.62-0.96C23.34-0.81 23.02-0.73 22.67-0.73ZM26.53-7.87L29.05 0L30.22 0L32.71-7.87L31.69-7.87L30.43-3.62C30.30-3.15 30.17-2.72 30.06-2.32C29.95-1.92 29.82-1.48 29.68-1.02L29.63-1.02C29.48-1.48 29.35-1.92 29.24-2.32C29.13-2.72 29.00-3.15 28.86-3.62L27.60-7.87ZM36.97-3.20L34.61-3.20L34.98-4.40C35.12-4.84 35.26-5.28 35.39-5.72C35.52-6.15 35.64-6.60 35.76-7.06L35.81-7.06C35.94-6.60 36.06-6.15 36.19-5.72C36.32-5.28 36.46-4.84 36.60-4.40ZM37.22-2.40L37.97 0L39.04 0L36.37-7.87L35.24-7.87L32.58 0L33.60 0L34.36-2.40ZM41.30-7.03L41.30 0L42.31 0L42.31-7.03L44.69-7.03L44.69-7.87L38.93-7.87L38.93-7.03ZM46.10-7.87L46.10 0L50.76 0L50.76-0.85L47.10-0.85L47.10-3.71L50.09-3.71L50.09-4.56L47.10-4.56L47.10-7.03L50.64-7.03L50.64-7.87ZM51.91 1.46L52.15 2.04C52.64 1.83 53.02 1.54 53.30 1.15C53.58 0.77 53.72 0.32 53.72-0.20C53.72-0.56 53.65-0.85 53.50-1.06C53.35-1.26 53.15-1.37 52.90-1.37C52.70-1.37 52.52-1.31 52.38-1.18C52.24-1.06 52.16-0.89 52.16-0.67C52.16-0.45 52.23-0.28 52.37-0.16C52.51-0.05 52.68 0.01 52.87 0.01C52.93 0.01 52.97 0.01 52.99 0C52.99 0.33 52.90 0.62 52.70 0.86C52.51 1.11 52.25 1.31 51.91 1.46ZM55.42-7.87L55.42 0L59.86 0L59.86-0.85L56.41-0.85L56.41-7.87ZM64.63-3.20L62.27-3.20L62.64-4.40C62.78-4.84 62.92-5.28 63.05-5.72C63.18-6.15 63.30-6.60 63.42-7.06L63.47-7.06C63.60-6.60 63.72-6.15 63.85-5.72C63.98-5.28 64.12-4.84 64.26-4.40ZM64.88-2.40L65.63 0L66.70 0L64.03-7.87L62.90-7.87L60.24 0L61.26 0L62.02-2.40ZM67.81-7.87L67.81 0L70.32 0C70.76 0 71.16-0.05 71.53-0.14C71.90-0.24 72.22-0.38 72.48-0.58C72.74-0.77 72.95-1.01 73.09-1.30C73.24-1.58 73.31-1.92 73.31-2.30C73.31-2.85 73.15-3.28 72.83-3.59C72.51-3.90 72.06-4.10 71.48-4.19L71.48-4.24C71.95-4.36 72.29-4.57 72.52-4.89C72.74-5.21 72.85-5.56 72.85-5.95C72.85-6.30 72.79-6.59 72.65-6.83C72.52-7.08 72.34-7.28 72.10-7.43C71.87-7.58 71.58-7.69 71.25-7.76C70.92-7.84 70.55-7.87 70.15-7.87ZM69.97-4.51L68.81-4.51L68.81-7.08L70.02-7.08C70.64-7.08 71.10-6.99 71.41-6.80C71.71-6.61 71.87-6.30 71.87-5.87C71.87-5.43 71.72-5.09 71.43-4.86C71.14-4.63 70.65-4.51 69.97-4.51ZM70.18-0.79L68.81-0.79L68.81-3.77L70.18-3.77C70.87-3.77 71.40-3.65 71.77-3.43C72.14-3.20 72.32-2.84 72.32-2.35C72.32-1.82 72.14-1.42 71.76-1.17C71.38-0.92 70.86-0.79 70.18-0.79ZM77.77 0.14C78.27 0.14 78.72 0.05 79.13-0.14C79.55-0.34 79.90-0.61 80.20-0.97C80.50-1.32 80.73-1.75 80.90-2.26C81.06-2.77 81.14-3.34 81.14-3.97C81.14-4.60 81.06-5.16 80.90-5.66C80.73-6.16 80.50-6.58 80.20-6.93C79.90-7.28 79.55-7.55 79.13-7.73C78.72-7.92 78.27-8.02 77.77-8.02C77.28-8.02 76.82-7.92 76.41-7.74C76.00-7.56 75.64-7.29 75.35-6.94C75.05-6.59 74.82-6.17 74.66-5.67C74.49-5.17 74.41-4.60 74.41-3.97C74.41-3.34 74.49-2.77 74.66-2.26C74.82-1.75 75.05-1.32 75.35-0.97C75.64-0.61 76.00-0.34 76.41-0.14C76.82 0.05 77.28 0.14 77.77 0.14ZM77.77-0.73C77.42-0.73 77.10-0.81 76.82-0.96C76.53-1.11 76.29-1.33 76.09-1.61C75.88-1.90 75.72-2.24 75.61-2.63C75.50-3.03 75.44-3.48 75.44-3.97C75.44-4.46 75.50-4.90 75.61-5.29C75.72-5.68 75.88-6.02 76.09-6.29C76.29-6.56 76.53-6.77 76.82-6.92C77.10-7.07 77.42-7.14 77.77-7.14C78.12-7.14 78.44-7.07 78.73-6.92C79.01-6.77 79.25-6.56 79.46-6.29C79.66-6.02 79.82-5.68 79.93-5.29C80.04-4.90 80.10-4.46 80.10-3.97C80.10-3.48 80.04-3.03 79.93-2.63C79.82-2.24 79.66-1.90 79.46-1.61C79.25-1.33 79.01-1.11 78.73-0.96C78.44-0.81 78.12-0.73 77.77-0.73ZM83.83-4.14L83.83-7.07L85.15-7.07C85.77-7.07 86.24-6.96 86.57-6.76C86.90-6.55 87.06-6.18 87.06-5.66C87.06-5.15 86.90-4.77 86.57-4.52C86.24-4.27 85.77-4.14 85.15-4.14ZM87.16 0L88.28 0L86.29-3.43C86.83-3.57 87.26-3.82 87.58-4.19C87.90-4.56 88.06-5.05 88.06-5.66C88.06-6.07 87.99-6.42 87.85-6.70C87.72-6.98 87.53-7.20 87.28-7.38C87.04-7.56 86.75-7.68 86.41-7.76C86.07-7.83 85.70-7.87 85.30-7.87L82.84-7.87L82.84 0L83.83 0L83.83-3.32L85.26-3.32ZM93.04-3.20L90.67-3.20L91.04-4.40C91.19-4.84 91.32-5.28 91.45-5.72C91.58-6.15 91.70-6.60 91.82-7.06L91.87-7.06C92.00-6.60 92.13-6.15 92.26-5.72C92.38-5.28 92.52-4.84 92.66-4.40ZM93.29-2.40L94.03 0L95.10 0L92.44-7.87L91.31-7.87L88.64 0L89.66 0L90.42-2.40ZM97.37-7.03L97.37 0L98.38 0L98.38-7.03L100.75-7.03L100.75-7.87L94.99-7.87L94.99-7.03ZM102.17-7.87L102.17 0L106.82 0L106.82-0.85L103.16-0.85L103.16-3.71L106.15-3.71L106.15-4.56L103.16-4.56L103.16-7.03L106.70-7.03L106.70-7.87ZM107.98 1.46L108.22 2.04C108.70 1.83 109.09 1.54 109.37 1.15C109.65 0.77 109.79 0.32 109.79-0.20C109.79-0.56 109.71-0.85 109.57-1.06C109.42-1.26 109.22-1.37 108.96-1.37C108.76-1.37 108.59-1.31 108.44-1.18C108.30-1.06 108.23-0.89 108.23-0.67C108.23-0.45 108.30-0.28 108.44-0.16C108.58-0.05 108.74 0.01 108.94 0.01C108.99 0.01 109.03 0.01 109.06 0C109.06 0.33 108.96 0.62 108.77 0.86C108.58 1.11 108.31 1.31 107.98 1.46ZM111.48-7.87L111.48 0L116.14 0L116.14-0.85L112.48-0.85L112.48-3.71L115.46-3.71L115.46-4.56L112.48-4.56L112.48-7.03L116.02-7.03L116.02-7.87ZM117.80-7.87L117.80 0L122.24 0L122.24-0.85L118.80-0.85L118.80-7.87ZM123.64-7.87L123.64 0L128.29 0L128.29-0.85L124.63-0.85L124.63-3.71L127.62-3.71L127.62-4.56L124.63-4.56L124.63-7.03L128.17-7.03L128.17-7.87ZM128.88-7.87L131.40 0L132.56 0L135.06-7.87L134.04-7.87L132.78-3.62C132.64-3.15 132.52-2.72 132.41-2.32C132.30-1.92 132.17-1.48 132.02-1.02L131.98-1.02C131.82-1.48 131.69-1.92 131.59-2.32C131.48-2.72 131.35-3.15 131.21-3.62L129.95-7.87ZM139.32-3.20L136.96-3.20L137.33-4.40C137.47-4.84 137.61-5.28 137.74-5.72C137.86-6.15 137.99-6.60 138.11-7.06L138.16-7.06C138.28-6.60 138.41-6.15 138.54-5.72C138.67-5.28 138.80-4.84 138.95-4.40ZM139.57-2.40L140.32 0L141.38 0L138.72-7.87L137.59-7.87L134.93 0L135.95 0L136.70-2.40ZM143.65-7.03L143.65 0L144.66 0L144.66-7.03L147.04-7.03L147.04-7.87L141.28-7.87L141.28-7.03ZM148.45-7.87L148.45 0L153.11 0L153.11-0.85L149.45-0.85L149.45-3.71L152.44-3.71L152.44-4.56L149.45-4.56L149.45-7.03L152.99-7.03L152.99-7.87Z" transform="translate(-1.08, 8.016)"></path></g></g></g></g></g><defs v-gra="od"></defs></svg>