<svg xmlns="http://www.w3.org/2000/svg" version="1.0" width="50" height="40" viewbox="0 0 22.9 24.57">

    <g transform="translate(0.000000,50.000000) scale(0.100000,-0.100000)" fill="#FFCE31" stroke="none">
    <path d="M426 463 c-4 -5 -67 -9 -139 -11 -243 -4 -257 -6 -257 -39 0 -8 7 -30 16 -48 14 -30 13 -42 -14 -184 l-29 -151 248 0 247 0 -9 34 c-5 19 -16 89 -24 156 -13 117 -13 124 6 158 23 44 24 56 3 76 -17 17 -36 21 -48 9z m-102 -146 c49 -49 41 -163 -14 -219 -34 -34 -49 -35 -85 -6 -50 39 -72 139 -42 198 26 51 102 66 141 27z"/>
    <path d="M213 305 c-7 -21 25 -55 52 -55 27 0 59 34 52 55 -9 21 -95 21 -104 0z"/>
    </g>
    </svg>