<svg xmlns="http://www.w3.org/2000/svg" xmlns:xlink="http://www.w3.org/1999/xlink" data-v-0dd9719b="" version="1.0" width="100%" height="100%" viewBox="0 0 340.000000 250.000000" preserveAspectRatio="xMidYMid meet" color-interpolation-filters="sRGB" style="margin: auto;"> <g data-v-0dd9719b="" fill="#efa917" class="iconlettersvg-g iconlettersvg" transform="translate(35.383376766345464,104.98459119722247)"><g><g class="tp-name"><g transform="scale(1)"><g transform="translate(0, 0)"><g class="name-imagesvg"><g> <svg x="0" y="0" width="37.20546289675453" height="40" filtersec="colorsb1546750712" class="image-svg-svg primary" style="overflow: visible;"><svg xmlns="http://www.w3.org/2000/svg" viewBox="0 0 22.9 24.57"><title>资源 6</title><path d="M7.48.93A12.29 12.29 0 0 0 3.61 3.5 12.57 12.57 0 0 0 1 7.37a11.7 11.7 0 0 0-1 4.82A11.94 11.94 0 0 0 1 17a12.78 12.78 0 0 0 2.61 3.94 12.28 12.28 0 0 0 3.85 2.68 11.43 11.43 0 0 0 4.73 1 13.27 13.27 0 0 0 2.81-.39 12 12 0 0 0 2.91-1.07 11.68 11.68 0 0 0 2.7-1.95 12.89 12.89 0 0 0 2.27-2.94h-4.23a9.2 9.2 0 0 1-2.9 2.28 7.75 7.75 0 0 1-3.56.85 7.86 7.86 0 0 1-3.31-.72 9 9 0 0 1-2.79-2 9.69 9.69 0 0 1-1.92-2.88 8.91 8.91 0 0 1-.72-3.58A9.24 9.24 0 0 1 6 5.82a9 9 0 0 1 2.8-1.93 8.14 8.14 0 0 1 3.39-.72V0a12 12 0 0 0-4.71.93z" fill="#000000"/><path d="M20.63 3.36a11.68 11.68 0 0 0-2.7-1.95l-.19-.08-1.54 2.94a9.19 9.19 0 0 1 2.45 2h4.25a12.89 12.89 0 0 0-2.27-2.91z" fill="#000000"/></svg></svg> <!----></g></g></g><g transform="translate(37.20546289675453, 0)"><g class="name-imagesvg"><g><rect fill="#FFF0BF" fill-opacity="0" stroke-width="2" x="0" y="0" width="39.969746045347144" height="40" class="image-rect"/> <svg x="0" y="0" width="39.969746045347144" height="40" filtersec="colorsb4355135639" class="image-svg-svg primary" style="overflow: visible;"><svg xmlns="http://www.w3.org/2000/svg" viewBox="0 0 24.63 24.61"><title>资源 8</title><path d="M1 7.58a12 12 0 0 0-1 4.61A12.25 12.25 0 0 0 3.65 21l2.24-2.24a8.28 8.28 0 0 1-2.54-6.86 9.36 9.36 0 0 1 .93-3.28A9.74 9.74 0 0 1 6.14 6a9.48 9.48 0 0 1 2.49-1.78 9.17 9.17 0 0 1 3.21-.93 8.59 8.59 0 0 1 3.52.38 8.17 8.17 0 0 1 3.42 2.18A8.49 8.49 0 0 1 21 9.26a8.83 8.83 0 0 1 .38 3.53 9.26 9.26 0 0 1-.99 3.21 9.77 9.77 0 0 1-1.79 2.53L21 21a12 12 0 0 0 2.64-3.94 12.38 12.38 0 0 0 .1-9.27A11.76 11.76 0 0 0 21 3.61 11.73 11.73 0 0 0 16.86.87 12.71 12.71 0 0 0 12.19 0a12.27 12.27 0 0 0-4.58.92 11.77 11.77 0 0 0-3.94 2.62A12.52 12.52 0 0 0 1 7.58z" fill="#FFF0BF"/><path d="M11.84 21.32a9.87 9.87 0 0 1-2-.43L9 24.16a12.66 12.66 0 0 0 3.19.45 12.71 12.71 0 0 0 3.29-.44l-.91-3a8.74 8.74 0 0 1-2.73.15z" fill="#FFCE31"/></svg></svg> <!----></g></g></g><g transform="translate(77.17520894210168, 0)"><g class="name-imagesvg"><g><rect fill="#efa917" fill-opacity="0" stroke-width="2" x="0" y="0" width="33.00266511956778" height="40" class="image-rect"/> <svg x="0" y="0" width="33.00266511956778" height="40" filtersec="colorsb3639502769" class="image-svg-svg primary" style="overflow: visible;"><svg xmlns="http://www.w3.org/2000/svg" viewBox="0 0 19.58 23.67"><title>资源 5</title><path d="M19.19 8.16a12.23 12.23 0 0 0-1.85-3.81 11.07 11.07 0 0 0-1.57-1.73 9 9 0 0 0-2.08-1.37A12.31 12.31 0 0 0 11 .34 14.86 14.86 0 0 0 7.68 0H0v3.17h7.64a8.8 8.8 0 0 1 4.08.83 8.24 8.24 0 0 1 2.67 2.16 8.08 8.08 0 0 1 1.41 2.68h3.57c-.06-.22-.11-.45-.18-.68z" fill="#FFCE31"/><path d="M15.53 16a7.28 7.28 0 0 1-2 2.64 7.89 7.89 0 0 1-2.8 1.42 11.51 11.51 0 0 1-3.12.43H0v3.17h7.55a16.72 16.72 0 0 0 4.84-.7 10.63 10.63 0 0 0 4.4-2.72A7.25 7.25 0 0 0 18 18.66a12.28 12.28 0 0 0 .93-2 17.24 17.24 0 0 0 .6-2.3v-.25h-3.4a7.74 7.74 0 0 1-.6 1.89z" fill="#FFCE31"/><path fill="#FFCE31" d="M0 14.07h3.34v9.6H0z"/></svg></svg> <!----></g></g></g><g transform="translate(110.17787406166946, 0)"><g class="name-imagesvg"><g><rect fill="#efa917" fill-opacity="0" stroke-width="2" x="0" y="0" width="21.56316043557815" height="40" class="image-rect"/> <svg x="0" y="0" width="21.56316043557815" height="40" filtersec="colorsb3472906902" class="image-svg-svg primary" style="overflow: visible;"><svg xmlns="http://www.w3.org/2000/svg" viewBox="0 0 12.76 23.67"><title>资源 4</title><path d="M0 10.14h12.76v3.17H3.45v7.19h9.31v3.17H0z" fill="#FFCE31"/><path fill="#FFCE31" d="M0 0h12.76v3.17H0z"/></svg></svg> <!----></g></g></g><g transform="translate(131.7410344972476, 0)"><g class="name-imagesvg"><g><rect fill="#FFF0BF" fill-opacity="0" stroke-width="2" x="0" y="0" width="30.53654353456761" height="40" class="image-rect"/> <svg x="0" y="0" width="30.53654353456761" height="40" filtersec="colorsb7819050329" class="image-svg-svg primary" style="overflow: visible;"><svg xmlns="http://www.w3.org/2000/svg" viewBox="0 0 18.07 23.67"><title>资源 10</title><path d="M7.36 23.67V16L0 0h3.87l6.94 15.13v8.54z" fill="#FFCE31"/><path fill="#FFF0BF" d="M13.97 0h4.1l-3.72 7.82H10.3L13.97 0z"/></svg></svg> <!----></g></g></g><g transform="translate(162.2775780318152, 0)"><g class="name-imagesvg"><g><rect fill="#efa917" fill-opacity="0" stroke-width="2" x="0" y="0" width="19.95775307401826" height="40" class="image-rect"/> <svg x="0" y="0" width="19.95775307401826" height="40" filtersec="colorsb353276822" class="image-svg-svg primary" style="overflow: visible;"><svg xmlns="http://www.w3.org/2000/svg" viewBox="0 0 11.81 23.67"><title>资源 2</title><path fill="#efa917" d="M0 0h3.45v5.87H0z"/><path d="M0 23.67v-12.1h3.46v8.93l8.21 3.17z" fill="#efa917"/><path fill="#efa917" d="M0 19.87h11.81v3.8H0z"/></svg></svg> <!----></g></g></g><g transform="translate(182.23533110583347, 0)"><g class="name-imagesvg"><g><rect fill="#000000" fill-opacity="0" stroke-width="2" x="0" y="0" width="38.005914150617045" height="40" class="image-rect"/> <svg x="0" y="0" width="38.005914150617045" height="40" filtersec="colorsb3034379213" class="image-svg-svg primary" style="overflow: visible;"><svg xmlns="http://www.w3.org/2000/svg" viewBox="0 0 22.49 23.67"><title>资源 25</title><path fill="#000000" d="M13.36 4.38L11.24 0 0 23.67h4.22l9.14-19.29z"/><path fill="#FFF0BF" d="M18.27 23.67h4.22l-5.93-12.48h-4.22l5.93 12.48z"/></svg></svg> <!----></g></g></g><g transform="translate(220.2412452564505, 0)"><g class="name-imagesvg"><g><rect fill="#efa917" fill-opacity="0" stroke-width="2" x="0" y="0" width="25.29469683140103" height="40" class="image-rect"/> <svg x="0" y="0" width="25.29469683140103" height="40" filtersec="colorsb4560666538" class="image-svg-svg primary" style="overflow: visible;"><svg xmlns="http://www.w3.org/2000/svg" viewBox="0 0 14.94 23.67"><title>资源 7</title><path d="M13.1 4.13a6.93 6.93 0 0 0-.77-1.47A5.32 5.32 0 0 0 11 1.33a6.54 6.54 0 0 0-2-1A9.64 9.64 0 0 0 6.14 0H0v3.17h6.08c.19 0 .5 0 .94.05a3.78 3.78 0 0 1 1.34.36 3.19 3.19 0 0 1 1.2 1h3.67c-.02-.11-.07-.28-.13-.45z" fill="#000000"/><path d="M12.76 9.52a5.35 5.35 0 0 0 .55-1.25 4 4 0 0 0 .13-.64H9.93a2.93 2.93 0 0 1-.54 1.09 2.89 2.89 0 0 1-1.15.81 5 5 0 0 1-2 .32H0V13h7.78a6 6 0 0 1 1 .16 3.84 3.84 0 0 1 1 .43 3.25 3.25 0 0 1 .88.82 4.54 4.54 0 0 1 .59 1.09 3.34 3.34 0 0 1 .24 1.24 4.48 4.48 0 0 1-.17 1.09 3.32 3.32 0 0 1-.66 1.22 4.14 4.14 0 0 1-1.31 1 4.75 4.75 0 0 1-2.14.41H0v3.17h7.07a9.25 9.25 0 0 0 4-.74 6.61 6.61 0 0 0 2.39-1.79 6.06 6.06 0 0 0 1.19-2.23 8.4 8.4 0 0 0 .32-2.12 6 6 0 0 0-.42-2.36 7.07 7.07 0 0 0-1-1.68 5.56 5.56 0 0 0-1.16-1.09c-.39-.27-.72-.47-1-.62.19-.17.41-.38.65-.63a4.28 4.28 0 0 0 .72-.85z" fill="#000000"/><path fill="#000000" d="M0 9.85h3.34v13.82H0z"/></svg></svg> <!----></g></g></g><g transform="translate(245.53594208785154, 0)"><g class="name-imagesvg"><g><rect fill="#efa917" fill-opacity="0" stroke-width="2" x="0" y="0" width="23.696141368530363" height="40" class="image-rect"/> <svg x="0" y="0" width="23.696141368530363" height="40" filtersec="colorsb7951718760" class="image-svg-svg primary" style="overflow: visible;"><svg xmlns="http://www.w3.org/2000/svg" viewBox="0 0 14.55 24.57"><title>资源 14</title><path d="M13.83 14A6.48 6.48 0 0 0 12 11.82a8.93 8.93 0 0 0-2.35-1.28l-2.4-.88c-.25-.08-.56-.2-.92-.35a4.84 4.84 0 0 1-1-.58 3.1 3.1 0 0 1-.85-.91 2.58 2.58 0 0 1-.35-1.42 3.16 3.16 0 0 1 .2-1.09 3.52 3.52 0 0 1 .61-1.06 3.32 3.32 0 0 1 1-.78 3 3 0 0 1 1.36-.3 4.19 4.19 0 0 1 1.11.16 2.8 2.8 0 0 1 1.08.56 3 3 0 0 1 .82 1.05 3.82 3.82 0 0 1 .32 1.65h3.45a7 7 0 0 0-.51-2.72 6.18 6.18 0 0 0-1.41-2.08A6 6 0 0 0 10 .46 7.73 7.73 0 0 0 7.29 0a6.45 6.45 0 0 0-2.92.62A6.87 6.87 0 0 0 2.3 2.19a6.39 6.39 0 0 0-1.23 2.08 6.45 6.45 0 0 0-.4 2.16 7.89 7.89 0 0 0 .39 2.45 4.63 4.63 0 0 0 1.21 2c.28.26.55.49.8.69a6 6 0 0 0 .93.6 13.65 13.65 0 0 0 1.33.6c.52.21 1.17.47 2 .77l1.24.46a5.21 5.21 0 0 1 1.23.67 3.28 3.28 0 0 1 .93 1.06 3.2 3.2 0 0 1 .37 1.63h3.45a7.13 7.13 0 0 0-.72-3.36z" fill="#000000"/><path d="M5.21 20.84a3.85 3.85 0 0 1-1.15-1.28 4.55 4.55 0 0 1-.49-1.44 7.11 7.11 0 0 1-.12-1H0a7.62 7.62 0 0 0 .69 3.38 7.25 7.25 0 0 0 1.74 2.32 6.71 6.71 0 0 0 2.35 1.33 8.15 8.15 0 0 0 2.51.42V21.4a3.49 3.49 0 0 1-2.08-.56z" fill="#000000"/></svg></svg> <!----></g></g></g></g></g></g> <!----></g><defs v-gra="od"/></svg>